<svg xmlns="http://www.w3.org/2000/svg" width="48" height="37" viewBox="0 0 48 37"><g><g><g><g><path fill="#64cce3" d="M46.874 36.733c.537 0 .973-.363.973-.811 0-.449-.436-.812-.973-.812-.538 0-.974.363-.974.812 0 .448.436.811.974.811z"/></g><g><path fill="#64cce3" d="M46.874 29.713c.537 0 .973-.363.973-.811 0-.449-.436-.812-.973-.812-.538 0-.974.363-.974.812 0 .448.436.811.974.811z"/></g><g><path fill="#64cce3" d="M46.874 22.703c.537 0 .973-.363.973-.811 0-.449-.436-.812-.973-.812-.538 0-.974.363-.974.812 0 .448.436.811.974.811z"/></g><g><path fill="#64cce3" d="M46.874 15.743c.537 0 .973-.363.973-.811 0-.449-.436-.812-.973-.812-.538 0-.974.363-.974.812 0 .448.436.811.974.811z"/></g><g><path fill="#64cce3" d="M46.874 8.723c.537 0 .973-.363.973-.811 0-.449-.436-.812-.973-.812-.538 0-.974.363-.974.812 0 .448.436.811.974.811z"/></g><g><path fill="#64cce3" d="M46.874 1.773c.537 0 .973-.363.973-.811 0-.449-.436-.812-.973-.812-.538 0-.974.363-.974.812 0 .448.436.811.974.811z"/></g></g><g><g><path fill="#64cce3" d="M37.904 36.733c.537 0 .973-.363.973-.811 0-.449-.436-.812-.973-.812-.538 0-.974.363-.974.812 0 .448.436.811.974.811z"/></g><g><path fill="#64cce3" d="M37.904 29.713c.537 0 .973-.363.973-.811 0-.449-.436-.812-.973-.812-.538 0-.974.363-.974.812 0 .448.436.811.974.811z"/></g><g><path fill="#64cce3" d="M37.904 22.703c.537 0 .973-.363.973-.811 0-.449-.436-.812-.973-.812-.538 0-.974.363-.974.812 0 .448.436.811.974.811z"/></g><g><path fill="#64cce3" d="M37.904 15.743c.537 0 .973-.363.973-.811 0-.449-.436-.812-.973-.812-.538 0-.974.363-.974.812 0 .448.436.811.974.811z"/></g><g><path fill="#64cce3" d="M37.904 8.723c.537 0 .973-.363.973-.811 0-.449-.436-.812-.973-.812-.538 0-.974.363-.974.812 0 .448.436.811.974.811z"/></g><g><path fill="#64cce3" d="M37.904 1.773c.537 0 .973-.363.973-.811 0-.449-.436-.812-.973-.812-.538 0-.974.363-.974.812 0 .448.436.811.974.811z"/></g></g><g><g><path fill="#64cce3" d="M28.864 36.733c.537 0 .973-.363.973-.811 0-.449-.436-.812-.973-.812-.538 0-.974.363-.974.812 0 .448.436.811.974.811z"/></g><g><path fill="#64cce3" d="M28.864 29.713c.537 0 .973-.363.973-.811 0-.449-.436-.812-.973-.812-.538 0-.974.363-.974.812 0 .448.436.811.974.811z"/></g><g><path fill="#64cce3" d="M28.864 22.703c.537 0 .973-.363.973-.811 0-.449-.436-.812-.973-.812-.538 0-.974.363-.974.812 0 .448.436.811.974.811z"/></g><g><path fill="#64cce3" d="M28.864 15.743c.537 0 .973-.363.973-.811 0-.449-.436-.812-.973-.812-.538 0-.974.363-.974.812 0 .448.436.811.974.811z"/></g><g><path fill="#64cce3" d="M28.864 8.723c.537 0 .973-.363.973-.811 0-.449-.436-.812-.973-.812-.538 0-.974.363-.974.812 0 .448.436.811.974.811z"/></g><g><path fill="#64cce3" d="M28.864 1.773c.537 0 .973-.363.973-.811 0-.449-.436-.812-.973-.812-.538 0-.974.363-.974.812 0 .448.436.811.974.811z"/></g></g><g><g><path fill="#64cce3" d="M19.824 36.733c.537 0 .973-.363.973-.811 0-.449-.436-.812-.973-.812-.538 0-.974.363-.974.812 0 .448.436.811.974.811z"/></g><g><path fill="#64cce3" d="M19.824 29.713c.537 0 .973-.363.973-.811 0-.449-.436-.812-.973-.812-.538 0-.974.363-.974.812 0 .448.436.811.974.811z"/></g><g><path fill="#64cce3" d="M19.824 22.703c.537 0 .973-.363.973-.811 0-.449-.436-.812-.973-.812-.538 0-.974.363-.974.812 0 .448.436.811.974.811z"/></g><g><path fill="#64cce3" d="M19.824 15.743c.537 0 .973-.363.973-.811 0-.449-.436-.812-.973-.812-.538 0-.974.363-.974.812 0 .448.436.811.974.811z"/></g><g><path fill="#64cce3" d="M19.824 8.723c.537 0 .973-.363.973-.811 0-.449-.436-.812-.973-.812-.538 0-.974.363-.974.812 0 .448.436.811.974.811z"/></g><g><path fill="#64cce3" d="M19.824 1.773c.537 0 .973-.363.973-.811 0-.449-.436-.812-.973-.812-.538 0-.974.363-.974.812 0 .448.436.811.974.811z"/></g></g><g><g><path fill="#64cce3" d="M10.784 36.733c.537 0 .973-.363.973-.811 0-.449-.436-.812-.973-.812-.538 0-.974.363-.974.812 0 .448.436.811.974.811z"/></g><g><path fill="#64cce3" d="M10.784 29.713c.537 0 .973-.363.973-.811 0-.449-.436-.812-.973-.812-.538 0-.974.363-.974.812 0 .448.436.811.974.811z"/></g><g><path fill="#64cce3" d="M10.784 22.703c.537 0 .973-.363.973-.811 0-.449-.436-.812-.973-.812-.538 0-.974.363-.974.812 0 .448.436.811.974.811z"/></g><g><path fill="#64cce3" d="M10.784 15.743c.537 0 .973-.363.973-.811 0-.449-.436-.812-.973-.812-.538 0-.974.363-.974.812 0 .448.436.811.974.811z"/></g><g><path fill="#64cce3" d="M10.784 8.723c.537 0 .973-.363.973-.811 0-.449-.436-.812-.973-.812-.538 0-.974.363-.974.812 0 .448.436.811.974.811z"/></g><g><path fill="#64cce3" d="M10.784 1.773c.537 0 .973-.363.973-.811 0-.449-.436-.812-.973-.812-.538 0-.974.363-.974.812 0 .448.436.811.974.811z"/></g></g><g><g><path fill="#64cce3" d="M1.814 36.733c.537 0 .973-.363.973-.811 0-.449-.436-.812-.973-.812-.538 0-.974.363-.974.812 0 .448.436.811.974.811z"/></g><g><path fill="#64cce3" d="M1.814 29.713c.537 0 .973-.363.973-.811 0-.449-.436-.812-.973-.812-.538 0-.974.363-.974.812 0 .448.436.811.974.811z"/></g><g><path fill="#64cce3" d="M1.814 22.703c.537 0 .973-.363.973-.811 0-.449-.436-.812-.973-.812-.538 0-.974.363-.974.812 0 .448.436.811.974.811z"/></g><g><path fill="#64cce3" d="M1.814 15.743c.537 0 .973-.363.973-.811 0-.449-.436-.812-.973-.812-.538 0-.974.363-.974.812 0 .448.436.811.974.811z"/></g><g><path fill="#64cce3" d="M1.814 8.723c.537 0 .973-.363.973-.811 0-.449-.436-.812-.973-.812-.538 0-.974.363-.974.812 0 .448.436.811.974.811z"/></g><g><path fill="#64cce3" d="M1.814 1.773c.537 0 .973-.363.973-.811 0-.449-.436-.812-.973-.812C1.276.15.84.513.84.962c0 .448.436.811.974.811z"/></g></g></g></g></svg>