<svg xmlns="http://www.w3.org/2000/svg" width="59" height="6" viewBox="0 0 59 6"><g><g><g><path fill="#dbe5f1" d="M56.14 2.776a1.386 1.386 0 0 1 2.772 0 1.386 1.386 0 0 1-2.772 0z"/></g><g><path fill="#dbe5f1" d="M0 2.772a2.772 2.772 0 1 1 5.544 0 2.772 2.772 0 1 1-5.544 0z"/></g><g><path fill="#dbe5f1" d="M47.13 2.772a2.772 2.772 0 1 1 5.544 0 2.772 2.772 0 1 1-5.544 0z"/></g><g><path fill="#dbe5f1" d="M38.12 2.772a2.772 2.772 0 1 1 5.544 0 2.772 2.772 0 1 1-5.544 0z"/></g><g><path fill="#26c296" d="M18.02 2.772A2.772 2.772 0 0 1 20.792 0h11.09a2.772 2.772 0 1 1 0 5.544h-11.09a2.772 2.772 0 0 1-2.772-2.772z"/></g><g><path fill="#dbe5f1" d="M9.01 2.772a2.772 2.772 0 1 1 5.544 0 2.772 2.772 0 1 1-5.544 0z"/></g></g></g></svg>