<svg xmlns="http://www.w3.org/2000/svg" width="47" height="44" viewBox="0 0 47 44"><g><g><g><g><path fill="#de6944" d="M.97 43.73a.97.97 0 1 0 0-1.94.97.97 0 0 0 0 1.94z"/></g><g><path fill="#de6944" d="M.97 35.35a.97.97 0 1 0 0-1.94.97.97 0 0 0 0 1.94z"/></g><g><path fill="#de6944" d="M.97 26.96a.97.97 0 1 0 0-1.94.97.97 0 0 0 0 1.94z"/></g><g><path fill="#de6944" d="M.97 18.64a.97.97 0 1 0 0-1.94.97.97 0 0 0 0 1.94z"/></g><g><path fill="#de6944" d="M.97 10.26a.97.97 0 1 0 0-1.94.97.97 0 0 0 0 1.94z"/></g><g><path fill="#de6944" d="M.97 1.94A.97.97 0 1 0 .97 0a.97.97 0 0 0 0 1.94z"/></g></g><g><g><path fill="#de6944" d="M45.88 43.73a.97.97 0 1 0 0-1.94.97.97 0 0 0 0 1.94z"/></g><g><path fill="#de6944" d="M45.88 35.35a.97.97 0 1 0 0-1.94.97.97 0 0 0 0 1.94z"/></g><g><path fill="#de6944" d="M45.88 26.96a.97.97 0 1 0 0-1.94.97.97 0 0 0 0 1.94z"/></g><g><path fill="#de6944" d="M45.88 18.64a.97.97 0 1 0 0-1.94.97.97 0 0 0 0 1.94z"/></g><g><path fill="#de6944" d="M45.88 10.26a.97.97 0 1 0 0-1.94.97.97 0 0 0 0 1.94z"/></g><g><path fill="#de6944" d="M45.88 1.94a.97.97 0 1 0 0-1.94.97.97 0 0 0 0 1.94z"/></g></g><g><g><path fill="#de6944" d="M36.94 43.73a.97.97 0 1 0 0-1.94.97.97 0 0 0 0 1.94z"/></g><g><path fill="#de6944" d="M36.94 35.35a.97.97 0 1 0 0-1.94.97.97 0 0 0 0 1.94z"/></g><g><path fill="#de6944" d="M36.94 26.96a.97.97 0 1 0 0-1.94.97.97 0 0 0 0 1.94z"/></g><g><path fill="#de6944" d="M36.94 18.64a.97.97 0 1 0 0-1.94.97.97 0 0 0 0 1.94z"/></g><g><path fill="#de6944" d="M36.94 10.26a.97.97 0 1 0 0-1.94.97.97 0 0 0 0 1.94z"/></g><g><path fill="#de6944" d="M36.94 1.94a.97.97 0 1 0 0-1.94.97.97 0 0 0 0 1.94z"/></g></g><g><g><path fill="#de6944" d="M27.93 43.73a.97.97 0 1 0 0-1.94.97.97 0 0 0 0 1.94z"/></g><g><path fill="#de6944" d="M27.93 35.35a.97.97 0 1 0 0-1.94.97.97 0 0 0 0 1.94z"/></g><g><path fill="#de6944" d="M27.93 26.96a.97.97 0 1 0 0-1.94.97.97 0 0 0 0 1.94z"/></g><g><path fill="#de6944" d="M27.93 18.64a.97.97 0 1 0 0-1.94.97.97 0 0 0 0 1.94z"/></g><g><path fill="#de6944" d="M27.93 10.26a.97.97 0 1 0 0-1.94.97.97 0 0 0 0 1.94z"/></g><g><path fill="#de6944" d="M27.93 1.94a.97.97 0 1 0 0-1.94.97.97 0 0 0 0 1.94z"/></g></g><g><g><path fill="#de6944" d="M18.92 43.73a.97.97 0 1 0 0-1.94.97.97 0 0 0 0 1.94z"/></g><g><path fill="#de6944" d="M18.92 35.35a.97.97 0 1 0 0-1.94.97.97 0 0 0 0 1.94z"/></g><g><path fill="#de6944" d="M18.92 26.96a.97.97 0 1 0 0-1.94.97.97 0 0 0 0 1.94z"/></g><g><path fill="#de6944" d="M18.92 18.64a.97.97 0 1 0 0-1.94.97.97 0 0 0 0 1.94z"/></g><g><path fill="#de6944" d="M18.92 10.26a.97.97 0 1 0 0-1.94.97.97 0 0 0 0 1.94z"/></g><g><path fill="#de6944" d="M18.92 1.94a.97.97 0 1 0 0-1.94.97.97 0 0 0 0 1.94z"/></g></g><g><g><path fill="#de6944" d="M9.91 43.73a.97.97 0 1 0 0-1.94.97.97 0 0 0 0 1.94z"/></g><g><path fill="#de6944" d="M9.91 35.35a.97.97 0 1 0 0-1.94.97.97 0 0 0 0 1.94z"/></g><g><path fill="#de6944" d="M9.91 26.96a.97.97 0 1 0 0-1.94.97.97 0 0 0 0 1.94z"/></g><g><path fill="#de6944" d="M9.91 18.64a.97.97 0 1 0 0-1.94.97.97 0 0 0 0 1.94z"/></g><g><path fill="#de6944" d="M9.91 10.26a.97.97 0 1 0 0-1.94.97.97 0 0 0 0 1.94z"/></g><g><path fill="#de6944" d="M9.91 1.94a.97.97 0 1 0 0-1.94.97.97 0 0 0 0 1.94z"/></g></g></g></g></svg>