<svg xmlns="http://www.w3.org/2000/svg" width="85" height="72" viewBox="0 0 85 72"><g><g><g><path fill="#fff" d="M9.737 19.421l-6.13-4.65c-3.476-2.947-3.476-8.105 0-11.42 3.477-3.316 9.56-2.948 13.471 0l4.998 3.5m40.848 0l4.998-3.5c3.91-2.948 9.994-3.316 13.47 0 3.477 3.316 3.477 8.473 0 11.42l-6.129 4.65"/><path fill="none" stroke="#1e3658" stroke-miterlimit="20" d="M9.737 19.421l-6.13-4.65c-3.476-2.947-3.476-8.105 0-11.42 3.477-3.316 9.56-2.948 13.471 0l4.998 3.5m40.848 0l4.998-3.5c3.91-2.948 9.994-3.316 13.47 0 3.477 3.316 3.477 8.473 0 11.42l-6.129 4.65"/></g><g><path fill="#fff" d="M7.55 71V32.444C7.55 14.85 23.36 1 42.497 1c19.138 0 34.948 14.225 34.948 31.444V71"/><path fill="none" stroke="#1e3658" stroke-miterlimit="20" d="M7.55 71v0-38.556C7.55 14.85 23.36 1 42.497 1c19.138 0 34.948 14.225 34.948 31.444V71"/></g><g><g><path fill="#fff" d="M52.011 30.98s-4.345 1.474-9.125 1.474-9.126-1.474-9.126-1.474"/><path fill="none" stroke="#1e3658" stroke-miterlimit="20" d="M52.011 30.98v0s-4.345 1.474-9.125 1.474-9.126-1.474-9.126-1.474v0"/></g><g/><g/></g><g><g><path fill="#fff" d="M32.155 15.74c0 2.105-1.573 3.684-3.67 3.684s-3.145-1.579-3.145-3.684"/><path fill="none" stroke="#1e3658" stroke-miterlimit="20" stroke-width=".5" d="M32.155 15.74c0 2.105-1.573 3.684-3.67 3.684s-3.145-1.579-3.145-3.684"/></g><g><path fill="#fff" d="M60.279 15.74c0 2.105-1.573 3.684-3.67 3.684-2.096 0-3.669-1.579-3.669-3.684"/><path fill="none" stroke="#1e3658" stroke-miterlimit="20" stroke-width=".5" d="M60.279 15.74c0 2.105-1.573 3.684-3.67 3.684-2.096 0-3.669-1.579-3.669-3.684"/></g></g></g></g></svg>