<svg width="686" height="336" viewBox="0 0 686 336" fill="none" xmlns="http://www.w3.org/2000/svg">
<path d="M361.496 128.952C396.067 128.952 424.091 106.995 424.091 79.9096C424.091 52.8238 396.067 30.8667 361.496 30.8667C326.925 30.8667 298.9 52.8238 298.9 79.9096C298.9 106.995 326.925 128.952 361.496 128.952Z" fill="#E9EEF2"/>
<path d="M444.217 269.64H278.77L341.502 76.0132H381.485L444.217 269.64Z" fill="#E9EEF2"/>
<path d="M547.123 75.4839V141.796H487.977V92.278L509.416 75.4839H547.123Z" fill="#E9EEF2"/>
<path d="M509.416 75.4839V92.278H487.977L509.416 75.4839Z" fill="#DCE2E5"/>
<path d="M517.552 109.858C521.658 109.858 524.984 107.25 524.984 104.034C524.984 100.818 521.658 98.2109 517.552 98.2109C513.445 98.2109 510.119 100.818 510.119 104.034C510.119 107.25 513.445 109.858 517.552 109.858Z" fill="#DCE2E5"/>
<path d="M527.374 126.56H507.73L515.178 103.571H519.926L527.374 126.56Z" fill="#DCE2E5"/>
<path d="M533.571 86.0527V152.365H474.425V102.847L495.864 86.0527H533.571Z" fill="#E9EEF2"/>
<path d="M495.864 86.0527V102.847H474.425L495.864 86.0527Z" fill="#DCE2E5"/>
<path d="M503.996 120.426C508.103 120.426 511.429 117.819 511.429 114.603C511.429 111.387 508.103 108.78 503.996 108.78C499.89 108.78 496.564 111.387 496.564 114.603C496.564 117.819 499.89 120.426 503.996 120.426Z" fill="#DCE2E5"/>
<path d="M513.818 137.129H494.174L501.622 114.14H506.37L513.818 137.129Z" fill="#DCE2E5"/>
<path d="M216.925 152.036H216.929C220.986 152.036 224.276 149.459 224.276 146.28V90.6616C224.276 87.4824 220.986 84.9053 216.929 84.9053H216.925C212.867 84.9053 209.578 87.4824 209.578 90.6616V146.28C209.578 149.459 212.867 152.036 216.925 152.036Z" fill="#DCE2E5"/>
<path d="M195.843 134.627C192.927 134.627 190.563 136.479 190.563 138.764C190.563 141.049 192.927 142.901 195.843 142.901H216.089C219.006 142.901 221.37 141.049 221.37 138.764C221.37 136.479 219.006 134.627 216.089 134.627H195.843Z" fill="#DCE2E5"/>
<path d="M203.975 122.685C201.059 122.685 198.695 124.537 198.695 126.822C198.695 129.107 201.059 130.959 203.975 130.959H218.04C220.956 130.959 223.32 129.107 223.32 126.822C223.32 124.537 220.956 122.685 218.04 122.685H203.975Z" fill="#DCE2E5"/>
<path fill-rule="evenodd" clip-rule="evenodd" d="M201.582 54.9453C206.123 52.5679 211.463 51.2988 216.925 51.2988C224.249 51.2988 231.274 53.5785 236.453 57.6363C241.632 61.694 244.541 67.1974 244.541 72.936C244.541 77.2154 242.922 81.3988 239.887 84.957C236.853 88.5152 232.54 91.2884 227.493 92.9261C222.447 94.5638 216.894 94.9924 211.537 94.1574C206.18 93.3227 201.259 91.2619 197.397 88.2358C193.535 85.2097 190.905 81.3544 189.839 77.1572C188.773 72.9601 189.32 68.6095 191.411 64.6559C193.501 60.7022 197.04 57.3227 201.582 54.9453ZM225.362 63.0428C222.864 61.736 219.928 61.0389 216.925 61.0396C212.9 61.0435 209.041 62.2983 206.196 64.5283C203.35 66.7587 201.749 69.7821 201.745 72.9357C201.745 75.2888 202.636 77.5889 204.304 79.5453C205.973 81.5017 208.345 83.0265 211.119 83.9266C213.894 84.8271 216.947 85.0624 219.893 84.603C222.838 84.144 225.543 83.0107 227.667 81.3465C229.79 79.6826 231.236 77.5624 231.821 75.2547C232.407 72.947 232.105 70.555 230.956 68.3812C229.806 66.2075 227.859 64.3497 225.362 63.0428Z" fill="#DCE2E5"/>
<path d="M576.961 40.8059C580.462 40.8059 583.302 38.5816 583.302 35.838C583.302 33.0943 580.462 30.8701 576.961 30.8701H515.706C512.205 30.8701 509.365 33.0943 509.365 35.838C509.365 38.5816 512.205 40.8059 515.706 40.8059H576.961Z" fill="#E9EEF2"/>
<path d="M564.132 50.0903C564.132 52.0622 566.172 53.661 568.686 53.661C571.203 53.661 573.243 52.0622 573.243 50.0903V36.4042C573.243 34.4322 571.203 32.8335 568.686 32.8335C566.172 32.8335 564.132 34.4322 564.132 36.4042V50.0903Z" fill="#E9EEF2"/>
<path d="M550.977 44.5954C550.977 46.5673 553.016 48.166 555.534 48.166C558.048 48.166 560.088 46.5673 560.088 44.5954V35.0887C560.088 33.1167 558.048 31.5181 555.534 31.5181C553.016 31.5181 550.977 33.1167 550.977 35.0887V44.5954Z" fill="#E9EEF2"/>
<path fill-rule="evenodd" clip-rule="evenodd" d="M482.958 20.3133C486.874 18.2616 491.482 17.1661 496.195 17.1655C499.322 17.1651 502.423 17.6477 505.313 18.5858C508.208 19.5238 510.834 20.8989 513.045 22.6325C515.26 24.3662 517.016 26.4244 518.213 28.6896C519.409 30.9549 520.027 33.3828 520.027 35.8348C520.027 39.5269 518.628 43.1365 516.01 46.2065C513.395 49.2767 509.673 51.6693 505.317 53.0827C500.966 54.4958 496.175 54.8656 491.552 54.1454C486.928 53.4255 482.682 51.6477 479.352 49.0368C476.019 46.4263 473.75 43.1 472.829 39.4788C471.908 35.8576 472.382 32.1039 474.185 28.6924C475.987 25.2811 479.041 22.3651 482.958 20.3133ZM502.528 28.4114C500.651 27.4304 498.448 26.9067 496.195 26.9067C493.172 26.91 490.277 27.8516 488.14 29.5253C486.003 31.199 484.803 33.4679 484.799 35.835C484.799 37.6008 485.467 39.3271 486.718 40.7953C487.973 42.2634 489.753 43.4077 491.835 44.0835C493.918 44.7592 496.206 44.9361 498.417 44.5915C500.628 44.2472 502.66 43.3967 504.253 42.148C505.846 40.8997 506.93 39.3085 507.372 37.5768C507.812 35.845 507.586 34.0496 506.724 32.4183C505.861 30.7869 504.4 29.3925 502.528 28.4114Z" fill="#E9EEF2"/>
<path d="M79.9922 211.224C92.1418 211.224 101.991 203.508 101.991 193.989C101.991 184.47 92.1418 176.753 79.9922 176.753C67.8429 176.753 57.9938 184.47 57.9938 193.989C57.9938 203.508 67.8429 211.224 79.9922 211.224Z" fill="#DCE2E5"/>
<path d="M62.8699 64.8841C79.6733 64.8841 93.2955 54.2113 93.2955 41.0461C93.2955 27.8807 79.6733 17.208 62.8699 17.208C46.0664 17.208 32.4443 27.8807 32.4443 41.0461C32.4443 54.2113 46.0664 64.8841 62.8699 64.8841Z" fill="#E9EEF2"/>
<path d="M115.857 291.213H44.1272L57.8111 245.312L61.8557 231.748L71.3241 199.986H88.6602L98.1286 231.748L102.173 245.312L115.857 291.213Z" fill="#DCE2E5"/>
<path d="M629.401 86.2535C644.46 86.2535 656.672 76.6876 656.672 64.8873C656.672 53.087 644.46 43.521 629.401 43.521C614.342 43.521 602.13 53.087 602.13 64.8873C602.13 76.6876 614.342 86.2535 629.401 86.2535Z" fill="#DCE2E5"/>
<path d="M674.412 139.424H584.39L618.522 70.7139H640.28L674.412 139.424Z" fill="#DCE2E5"/>
<path d="M580.268 234.101C596.629 234.101 609.893 223.709 609.893 210.89C609.893 198.071 596.629 187.679 580.268 187.679C563.907 187.679 550.643 198.071 550.643 210.89C550.643 223.709 563.907 234.101 580.268 234.101Z" fill="#E9EEF2"/>
<path d="M619.42 300.686H541.116L570.807 209.045H589.729L619.42 300.686Z" fill="#E9EEF2"/>
<path fill-rule="evenodd" clip-rule="evenodd" d="M665.557 179.542C672.854 179.542 678.767 174.908 678.767 169.192C678.767 163.476 672.854 158.842 665.557 158.842C658.261 158.842 652.347 163.476 652.347 169.192C652.347 174.908 658.261 179.542 665.557 179.542Z" stroke="#E9EEF2" stroke-width="10"/>
<path d="M661.019 178.915L651.508 200.521" stroke="#E9EEF2" stroke-width="10"/>
<path d="M651.706 198.856L659.399 200.99" stroke="#E9EEF2" stroke-width="10"/>
<path d="M655.071 192.43L661.552 194.247" stroke="#E9EEF2" stroke-width="10"/>
<path fill-rule="evenodd" clip-rule="evenodd" d="M136.196 27.9172C142.258 27.9172 147.172 24.0671 147.172 19.3177C147.172 14.5684 142.258 10.7183 136.196 10.7183C130.134 10.7183 125.22 14.5684 125.22 19.3177C125.22 24.0671 130.134 27.9172 136.196 27.9172Z" stroke="#E9EEF2" stroke-width="10"/>
<path d="M143.703 25.5977L160.6 39.2198" stroke="#E9EEF2" stroke-width="10"/>
<path d="M159.096 38.4802L163.999 34.8091" stroke="#E9EEF2" stroke-width="10"/>
<path d="M154.271 34.1179L158.42 31.0312" stroke="#E9EEF2" stroke-width="10"/>
<path fill-rule="evenodd" clip-rule="evenodd" d="M486.05 216.518C491.897 216.518 496.637 212.804 496.637 208.223C496.637 203.641 491.897 199.928 486.05 199.928C480.202 199.928 475.462 203.641 475.462 208.223C475.462 212.804 480.202 216.518 486.05 216.518Z" stroke="#E9EEF2" stroke-width="10"/>
<path d="M492.119 215.023L505.161 230.229" stroke="#E9EEF2" stroke-width="10"/>
<path d="M504.571 228.968L499.175 231.863" stroke="#E9EEF2" stroke-width="10"/>
<path d="M500.278 224.533L495.732 226.987" stroke="#E9EEF2" stroke-width="10"/>
<path d="M4 197.681L37.7203 224.101" stroke="#E9EEF2" stroke-width="10"/>
<path d="M642.743 4L676.463 30.4194" stroke="#E9EEF2" stroke-width="10"/>
<path d="M127.746 151.394L161.47 177.813" stroke="#E9EEF2" stroke-width="10"/>
<path d="M648.276 256.429L682 282.848" stroke="#E9EEF2" stroke-width="10"/>
<path d="M244.755 15.7134L278.475 42.1328" stroke="#E9EEF2" stroke-width="10"/>
<path d="M160.985 79.4473L128.232 105.109" stroke="#E9EEF2" stroke-width="10"/>
<path d="M506.685 280.422L473.936 306.083" stroke="#E9EEF2" stroke-width="10"/>
<path d="M184.467 281.722L212.919 304.013" stroke="#E9EEF2" stroke-width="10"/>
<path d="M76.1379 48.209H49.5976V117.519H76.1379V48.209Z" fill="#E9EEF2"/>
<path d="M520.015 96.6216V162.933H460.87V113.416L482.308 96.6216H520.015Z" fill="#E9EEF2"/>
<path d="M482.308 96.6216V113.416H460.87L482.308 96.6216Z" fill="#DCE2E5"/>
<path d="M490.444 130.995C494.551 130.995 497.877 128.388 497.877 125.172C497.877 121.956 494.551 119.349 490.444 119.349C486.338 119.349 483.012 121.956 483.012 125.172C483.012 128.388 486.338 130.995 490.444 130.995Z" fill="#DCE2E5"/>
<path d="M500.266 147.698H480.622L488.07 124.709H492.818L500.266 147.698Z" fill="#DCE2E5"/>
<path d="M482.308 96.6214H520.015" stroke="white" stroke-width="3" stroke-linecap="square"/>
<path d="M520.015 153.223V96.6216" stroke="white" stroke-width="3" stroke-linecap="square"/>
<path d="M495.864 86.0526H533.571" stroke="white" stroke-width="3" stroke-linecap="square"/>
<path d="M533.571 141.796V86.0527" stroke="white" stroke-width="3" stroke-linecap="square"/>
<path d="M145.066 238.527C145.066 240.324 144.155 242.048 142.534 243.32C140.912 244.592 138.712 245.307 136.418 245.309H57.8109L61.8555 231.735H136.418C137.555 231.736 138.681 231.912 139.732 232.253C140.782 232.595 141.736 233.095 142.539 233.726C143.342 234.357 143.979 235.106 144.413 235.929C144.846 236.753 145.068 237.636 145.066 238.527Z" fill="#E9EEF2"/>
<path fill-rule="evenodd" clip-rule="evenodd" d="M144.989 217.334C150.339 214.534 156.629 213.039 163.063 213.039C171.691 213.039 179.964 215.725 186.065 220.505C192.166 225.285 195.593 231.767 195.594 238.526C195.594 243.567 193.686 248.495 190.112 252.687C186.537 256.878 181.457 260.145 175.512 262.074C169.568 264.003 163.027 264.508 156.716 263.525C150.406 262.541 144.609 260.114 140.06 256.549C135.51 252.985 132.412 248.443 131.157 243.499C129.901 238.555 130.546 233.43 133.008 228.773C135.47 224.115 139.64 220.135 144.989 217.334ZM172.501 227.46C169.708 225.997 166.423 225.215 163.063 225.215C158.558 225.218 154.238 226.622 151.052 229.117C147.866 231.613 146.074 234.997 146.069 238.527C146.069 241.159 147.065 243.733 148.932 245.922C150.799 248.111 153.452 249.817 156.556 250.825C159.661 251.832 163.077 252.096 166.372 251.583C169.668 251.069 172.695 249.802 175.072 247.94C177.448 246.079 179.066 243.708 179.722 241.125C180.379 238.543 180.042 235.867 178.757 233.434C177.472 231.002 175.295 228.923 172.501 227.46Z" fill="#E9EEF2"/>
<path d="M314.06 321.489L331.311 210.262L339.47 239.485L333.188 321.489H380.569L387.24 231.385C387.698 225.208 386.949 219.011 385.017 213.011L359.938 135.083L280.247 134.584L279.963 226.56L267.841 321.489H314.06Z" fill="#274992"/>
<path d="M331.548 212.68L336.898 168.766" stroke="white" stroke-width="3" stroke-linecap="square"/>
<path d="M422.428 52.6501L421.57 48.8481C421.317 46.9936 421.189 45.1301 421.181 43.2653C421.181 40.3521 423.198 36.7175 419.763 31.8866C416.328 27.0556 423.26 29.9749 425.016 32.2549C426.5 34.1574 426.516 38.4435 428.198 39.865C428.897 39.4705 429.523 38.9999 430.051 38.4678L441.707 23.1592C441.886 22.9117 442.177 22.7235 442.519 22.6295C442.861 22.5355 443.238 22.542 443.576 22.6478L444.353 22.8944C444.547 22.956 444.726 23.0491 444.873 23.1676C445.021 23.2862 445.134 23.4276 445.208 23.5828C445.281 23.7379 445.313 23.9034 445.297 24.0685C445.285 24.2335 445.227 24.3946 445.13 24.5412C442.911 27.8897 435.957 37.7555 436.194 37.8255L436.61 38.1299L450.756 23.2323C450.966 22.9961 451.28 22.8284 451.638 22.7606C451.995 22.6928 452.372 22.7295 452.698 22.864L453.751 23.3053C453.934 23.3801 454.093 23.4831 454.221 23.608C454.35 23.7329 454.443 23.877 454.497 24.0316C454.552 24.1861 454.567 24.3478 454.536 24.5067C454.509 24.6655 454.439 24.8182 454.334 24.9552C451.614 28.5168 441.124 39.9929 441.357 40.072L441.893 40.3947L455.368 28.5533C455.589 28.3049 455.927 28.1332 456.304 28.0737C456.685 28.0142 457.081 28.0715 457.407 28.2337L458.216 28.6385C458.383 28.7221 458.53 28.8308 458.643 28.9584C458.756 29.0861 458.837 29.2301 458.88 29.3822C458.923 29.5343 458.927 29.6916 458.892 29.8451C458.857 29.9985 458.787 30.145 458.678 30.2762L446.074 42.0903L446.56 42.559L457.874 34.6049C458.118 34.3879 458.456 34.2484 458.826 34.2137C459.191 34.179 459.564 34.2509 459.867 34.4162L460.255 34.6262C460.578 34.8043 460.799 35.0737 460.869 35.3772C460.943 35.6807 460.861 35.9945 460.644 36.2517C459.09 38.0995 453.903 41.4266 450.018 45.3139C447.003 48.3245 445.709 51.0337 441.385 54.5009C439.558 55.9712 436.621 57.5145 435.013 58.3851" fill="#3361C2"/>
<path d="M335.841 321.489L326.882 335.48H407.443L373.886 321.489H335.841Z" fill="#162C56"/>
<path d="M270.573 321.489L261.617 335.48H342.174L308.617 321.489H270.573Z" fill="#162C56"/>
<path d="M397.54 84.3786C397.54 84.3786 366.846 75.6452 327.407 76.3241C280.915 77.1246 258.796 103.164 249.313 120.079C248.439 121.631 248.072 123.329 248.244 125.019C248.416 126.71 249.121 128.34 250.295 129.764C251.47 131.189 253.079 132.362 254.975 133.179C256.872 133.996 258.998 134.431 261.163 134.444L359.938 135.084L369.818 108.981L409.553 110.822C415 111.075 420.385 109.798 424.74 107.221C429.096 104.644 432.138 100.934 433.315 96.7588L444.447 57.3108L417.145 51.6367L397.54 84.3786Z" fill="#EF6E45"/>
<path d="M337.431 81L338.325 80" stroke="#3361C2" stroke-width="65" stroke-linecap="round" stroke-linejoin="round"/>
<mask id="mask0" mask-type="alpha" maskUnits="userSpaceOnUse" x="248" y="51" width="197" height="85">
<path fill-rule="evenodd" clip-rule="evenodd" d="M397.54 84.3786C397.54 84.3786 366.846 75.6452 327.407 76.3241C280.915 77.1246 258.796 103.164 249.313 120.079C248.439 121.631 248.072 123.329 248.244 125.019C248.416 126.71 249.121 128.34 250.295 129.764C251.47 131.189 253.079 132.362 254.975 133.179C256.872 133.996 258.998 134.431 261.163 134.444L303.512 134.709L359.938 135.084L369.818 108.981L409.553 110.822C415 111.075 420.385 109.798 424.74 107.221C429.096 104.644 432.138 100.934 433.315 96.7588L444.447 57.3108L417.145 51.6367L397.54 84.3786Z" fill="white"/>
</mask>
<g mask="url(#mask0)">
<path d="M260.14 85.1299L285.95 105.352" stroke="#FFA161" stroke-width="31" stroke-linecap="round"/>
<path d="M300.947 88.4356L329.558 66.0161" stroke="#FFA161" stroke-width="31" stroke-linecap="round"/>
<path d="M347.873 109.367L330.32 95.6108" stroke="#FFA161" stroke-width="31" stroke-linecap="round"/>
<path d="M358.387 87.2519L383.863 67.292" stroke="#FFA161" stroke-width="31" stroke-linecap="round"/>
<path d="M390.278 95.6899L419.615 118.676" stroke="#FFA161" stroke-width="31" stroke-linecap="round"/>
<path d="M424.639 85.3799L453.53 62.7412" stroke="#FFA161" stroke-width="31" stroke-linecap="round"/>
<path d="M421.29 62.1504L390.371 37.9258" stroke="#FFA161" stroke-width="31" stroke-linecap="round"/>
<path d="M314.756 111.135L298.306 124.021" stroke="#FFA161" stroke-width="31" stroke-linecap="round"/>
<path d="M260.171 113.75L231.731 136.033" stroke="#FFA161" stroke-width="31" stroke-linecap="round"/>
<path d="M339.688 129.978L361.764 147.274" stroke="#FFA161" stroke-width="31" stroke-linecap="round"/>
<path d="M368.21 133.269L320.444 132.645" stroke="white" stroke-width="14" stroke-linecap="square"/>
</g>
<path d="M340.033 68.6987L342.396 68.7382C345.143 68.7839 347.87 68.3547 350.381 67.4807C352.893 66.6068 355.127 65.3097 356.926 63.6821C358.725 62.0544 360.044 60.136 360.789 58.0636C361.533 55.9909 361.686 53.8153 361.235 51.6915L359.009 41.1773C358.289 37.7792 356.064 34.6886 352.725 32.4484C349.385 30.2082 345.145 28.9617 340.748 28.928C338.293 28.9083 335.857 29.2678 333.579 29.9857C331.301 30.7037 329.226 31.7663 327.472 33.1126C325.719 34.4591 324.32 36.0627 323.358 37.8325C322.395 39.6023 321.887 41.5033 321.862 43.4269L321.746 53.9045C321.696 57.7595 323.588 61.4748 327.012 64.244C330.435 67.0135 335.114 68.6141 340.033 68.6987Z" fill="#3361C2"/>
<path d="M318.274 57.1416C320.55 59.5238 324.859 60.0097 327.899 58.2268C330.938 56.4439 331.557 53.0677 329.281 50.6854L326.946 48.2413C324.669 45.8591 320.36 45.3732 317.321 47.1561C314.281 48.939 313.662 52.3155 315.938 54.6975L318.274 57.1416Z" fill="#3361C2"/>
<path d="M318.575 51.2803L323.3 55.1584" stroke="white" stroke-width="3" stroke-linecap="square"/>
<path d="M351.53 46.0444L352.906 54.5282L349.059 54.927" stroke="white" stroke-width="3" stroke-linecap="square"/>
<path d="M339.362 58.2238C338.826 59.2043 338.809 60.3115 339.315 61.3017C339.821 62.2919 340.808 63.084 342.06 63.5038C343.311 63.9235 344.724 63.9366 345.988 63.5403C347.252 63.1437 348.263 62.3702 348.799 61.3897C349.914 59.3501 347.198 58.65 344.591 57.7733C341.984 56.8966 340.477 56.1843 339.362 58.2238Z" fill="white"/>
<path d="M328.906 54.5043L332.341 38.7665L333.153 35.0314C334.432 35.9227 335.891 36.6426 337.469 37.1623C343.2 39.0739 359.573 36.9766 360.781 27.7622C361.783 20.2464 352.272 25.2052 347.093 25.1108C338.961 24.9586 332.935 21.6467 322.464 27.1016C309.926 33.6342 317.771 46.888 317.771 46.888C317.771 46.888 323.389 44.7146 328.906 54.5043Z" fill="#24272D"/>
<path d="M344.715 68.7412L337.675 68.7443L344.622 73.1612L344.715 68.7412Z" fill="#24272D"/>
<path d="M342.077 49.7158C343.14 49.7158 344.001 49.0412 344.001 48.209C344.001 47.3767 343.14 46.7021 342.077 46.7021C341.015 46.7021 340.154 47.3767 340.154 48.209C340.154 49.0412 341.015 49.7158 342.077 49.7158Z" fill="white"/>
<path d="M356.056 49.7158C357.118 49.7158 357.979 49.0412 357.979 48.209C357.979 47.3767 357.118 46.7021 356.056 46.7021C354.994 46.7021 354.133 47.3767 354.133 48.209C354.133 49.0412 354.994 49.7158 356.056 49.7158Z" fill="white"/>
<path d="M284.626 188.728L284.237 188.67C278.547 187.832 273.068 190.766 271.998 195.224L240.685 325.684C239.615 330.144 243.36 334.436 249.05 335.276L249.439 335.331C255.129 336.171 260.608 333.237 261.678 328.78L292.991 198.317C294.061 193.859 290.316 189.566 284.626 188.728Z" fill="#FFBA5F"/>
<path d="M247.445 311.039L247.372 311.344C246.302 315.803 250.047 320.095 255.737 320.932L273.954 323.617C279.644 324.454 285.124 321.523 286.194 317.063L286.267 316.759C287.337 312.299 283.592 308.007 277.902 307.169L259.685 304.485C253.995 303.647 248.515 306.581 247.445 311.039Z" fill="#FFBA5F"/>
<path d="M259.78 287.802L259.706 288.108C258.637 292.566 262.382 296.859 268.071 297.697L292.195 301.251C297.885 302.089 303.365 299.155 304.435 294.698L304.508 294.393C305.578 289.935 301.833 285.642 296.143 284.803L272.019 281.249C266.329 280.411 260.85 283.345 259.78 287.802Z" fill="#FFBA5F"/>
<path fill-rule="evenodd" clip-rule="evenodd" d="M257.999 142.17C266.885 135.525 278.695 131.818 290.978 131.817C293.957 131.817 296.929 132.035 299.856 132.468C311.925 134.256 322.652 139.617 329.808 147.439C336.963 155.261 339.999 164.941 338.284 174.471C336.568 184 330.234 192.645 320.596 198.611C310.958 204.577 298.757 207.405 286.528 206.507C274.299 205.61 262.98 201.056 254.924 193.792C246.867 186.528 242.692 177.111 243.265 167.498C243.838 157.885 249.115 148.815 257.999 142.17ZM295.326 151.317C293.896 151.105 292.445 150.997 290.99 150.995H290.978C285.192 151.008 279.62 152.711 275.351 155.771C271.082 158.831 268.423 163.028 267.892 167.542C267.361 172.056 268.998 176.564 272.481 180.183C275.965 183.802 281.046 186.274 286.732 187.115C288.166 187.328 289.623 187.436 291.083 187.438C296.869 187.424 302.44 185.72 306.708 182.66C310.977 179.6 313.635 175.403 314.166 170.889C314.696 166.375 313.059 161.868 309.576 158.249C306.092 154.63 301.011 152.159 295.326 151.317Z" fill="#FFBA5F"/>
<path d="M304.075 133.059L311.092 137.799C311.092 137.799 308.539 152.036 316.671 152.036C316.671 152.036 316.349 154.292 317.946 154.663C319.543 155.034 324.799 150.133 324.799 150.133C324.799 150.133 331.175 148.916 333.087 144.417C334.998 139.917 336.914 129.056 335.158 128.058C333.401 127.059 314.915 124.935 314.915 124.935C314.915 124.935 307.106 124.935 304.075 133.059Z" fill="#3361C2"/>
<path d="M318.637 123.437L289.23 111.604" stroke="white" stroke-width="3" stroke-linecap="square"/>
<path d="M295.135 113.519L314.962 98.6885" stroke="white" stroke-width="3" stroke-linecap="square"/>
<path d="M368.691 114.664L372.196 103.863" stroke="white" stroke-width="3" stroke-linecap="square"/>
<path d="M303.931 133.674C303.931 133.674 304.471 124.934 319.177 123.628" stroke="white" stroke-width="3" stroke-linecap="square"/>
<path d="M344.222 234.101L339.454 239.486L344.7 243.89" stroke="white" stroke-width="3" stroke-linecap="square"/>
<path d="M270.242 203.407C270.242 203.407 276.459 205.498 280.111 206.147" stroke="white" stroke-width="3" stroke-linecap="square"/>
<path d="M245.555 324.22L250.338 304.613" stroke="white" stroke-width="3" stroke-linecap="square"/>
<path d="M251.535 300.616L253.687 291.877" stroke="white" stroke-width="3" stroke-linecap="square"/>
</svg>
