<svg width="96" height="96" viewBox="0 0 96 96" fill="none" xmlns="http://www.w3.org/2000/svg">
<path d="M71 12.125C71 10.3991 72.3991 9 74.125 9H92.875C94.6009 9 96 10.3991 96 12.125V30.875C96 32.6009 94.6009 34 92.875 34H74.125C72.3991 34 71 32.6009 71 30.875V12.125Z" fill="#A8ABFF"/>
<path d="M49 32.5C49 42.165 41.165 50 31.5 50C21.835 50 14 42.165 14 32.5C14 22.835 21.835 15 31.5 15C41.165 15 49 22.835 49 32.5Z" fill="#A8ABFF"/>
<path d="M15.6815 85.6815C15.1293 85.6815 14.6706 85.232 14.7332 84.6832C14.782 84.2552 14.8654 83.8885 14.9834 83.5833C15.1847 83.0627 15.5517 82.5515 16.0844 82.0497C16.6231 81.5417 16.9812 81.1308 17.1588 80.8172C17.3364 80.4973 17.4252 80.1618 17.4252 79.8105C17.4252 78.7505 16.9635 78.2204 16.04 78.2204C15.602 78.2204 15.2498 78.3647 14.9834 78.6532C14.9168 78.7254 14.8583 78.8048 14.808 78.8914C14.5349 79.3608 14.1414 79.8293 13.5983 79.8293H13.01C12.4539 79.8293 11.9889 79.3703 12.1048 78.8264C12.2605 78.0948 12.5897 77.4914 13.0922 77.0161C13.8144 76.3387 14.797 76 16.04 76C17.2949 76 18.2687 76.323 18.9612 76.9691C19.6538 77.6089 20.0001 78.5152 20.0001 79.6882C20.0001 80.2213 19.8876 80.7263 19.6627 81.203C19.4377 81.6734 19.0441 82.1971 18.4818 82.7742L17.7626 83.4987C17.3127 83.9566 17.0552 84.4928 16.9901 85.1075C16.9701 85.4301 16.7027 85.6815 16.3795 85.6815H15.6815ZM14.4241 88.5699C14.4241 88.1497 14.5572 87.8047 14.8236 87.535C15.0959 87.259 15.4422 87.121 15.8625 87.121C16.2827 87.121 16.626 87.259 16.8924 87.535C17.1647 87.8047 17.3009 88.1497 17.3009 88.5699C17.3009 88.9839 17.1677 89.3257 16.9013 89.5954C16.6408 89.8652 16.2946 90 15.8625 90C15.4303 90 15.0811 89.8652 14.8147 89.5954C14.5543 89.3257 14.4241 88.9839 14.4241 88.5699Z" fill="#A8ABFF"/>
<path d="M38.5 32C38.5 35.866 35.366 39 31.5 39C27.634 39 24.5 35.866 24.5 32C24.5 28.134 27.634 25 31.5 25C35.366 25 38.5 28.134 38.5 32Z" fill="white" stroke="#000577"/>
<path d="M74.3652 21.5L74.0048 21.1534L73.6716 21.5L74.0048 21.8465L74.3652 21.5ZM92.8749 21.5L93.2353 21.8465L93.5686 21.5L93.2353 21.1534L92.8749 21.5ZM0.500001 70.5H1H0.500001ZM0.5 93.5H0H0.5ZM2.5 95.5L2.5 95H2.5V95.5ZM32.5 95.5V96V95.5ZM27.0999 73.9795H27.5999H27.0999ZM27.0999 68.5L27.4553 68.1483L27.3086 68H27.0999V68.5ZM2.5 68.5L2.5 68H2.5V68.5ZM34.5 93.5H35H34.5ZM34.5 75.9795H35V75.7739L34.8554 75.6278L34.5 75.9795ZM29.0999 75.9795V76.4795V75.9795ZM3.99988 29.623L3.59275 29.3327L3.99988 29.623ZM60.4891 29.623L60.0819 29.9132L60.4891 29.623ZM3.99988 34.8653L4.40701 34.575L3.99988 34.8653ZM60.4891 34.8653L60.0819 34.575L60.4891 34.8653ZM80.0144 14.9034L74.0048 21.1534L74.7257 21.8465L80.7353 15.5966L80.0144 14.9034ZM74.0048 21.8465L80.0144 28.0965L80.7353 27.4034L74.7257 21.1534L74.0048 21.8465ZM86.5049 15.5966L92.5145 21.8465L93.2353 21.1534L87.2257 14.9034L86.5049 15.5966ZM92.5145 21.1534L86.5049 27.4034L87.2257 28.0965L93.2353 21.8465L92.5145 21.1534ZM63.5 32C63.5 49.1166 49.4838 63 32.2311 63V64C50.0276 64 64.5 49.6773 64.5 32H63.5ZM32.2311 63C14.9792 63 1 49.1174 1 32H0C0 49.6766 14.4338 64 32.2311 64V63ZM1 32C1 14.8826 14.9792 1 32.2311 1V0C14.4338 0 0 14.3234 0 32H1ZM32.2311 1C49.4838 1 63.5 14.8834 63.5 32H64.5C64.5 14.3227 50.0276 0 32.2311 0V1ZM61.5 32C61.5 48.0054 48.0272 61 32 61V62C48.5576 62 62.5 48.5794 62.5 32H61.5ZM32 61C15.9837 61 3 48.0163 3 32H2C2 48.5685 15.4315 62 32 62V61ZM3 32C3 15.9837 15.9837 3 32 3V2C15.4315 2 2 15.4315 2 32H3ZM32 3C48.0272 3 61.5 15.9946 61.5 32H62.5C62.5 15.4206 48.5576 2 32 2V3ZM1.01328e-06 70.5L0 93.5H1L1 70.5H1.01328e-06ZM2.5 96L32.5 96V95L2.5 95L2.5 96ZM27.5999 73.9795V68.5H26.5999V73.9795H27.5999ZM27.0999 68L2.5 68L2.5 69L27.0999 69V68ZM35 93.5V75.9795H34V93.5H35ZM34.5 75.4795H29.0999V76.4795H34.5V75.4795ZM26.7444 68.8517L34.1446 76.3311L34.8554 75.6278L27.4553 68.1483L26.7444 68.8517ZM0 93.5C-5.96046e-08 94.8807 1.11929 96 2.5 96V95C1.67157 95 1 94.3284 1 93.5H0ZM1 70.5C1 69.6716 1.67157 69 2.5 69V68C1.11929 68 1.07288e-06 69.1193 1.01328e-06 70.5H1ZM26.5999 73.9795C26.5999 75.3602 27.7192 76.4795 29.0999 76.4795V75.4795C28.2715 75.4795 27.5999 74.8079 27.5999 73.9795H26.5999ZM32.5 96C33.8807 96 35 94.8807 35 93.5H34C34 94.3284 33.3284 95 32.5 95V96ZM4.40701 29.9132C7.90787 25.0025 11.7972 21.4062 16.3327 19.0344C20.8676 16.6629 26.0781 15.5001 32.2445 15.5001V14.5001C25.9484 14.5001 20.5729 15.6885 15.8692 18.1482C11.1661 20.6077 7.16436 24.3228 3.59275 29.3327L4.40701 29.9132ZM60.8962 29.3327C57.3246 24.3228 53.3228 20.6077 48.6197 18.1482C43.9161 15.6885 38.5405 14.5001 32.2445 14.5001V15.5001C38.4108 15.5001 43.6214 16.6629 48.1563 19.0344C52.6918 21.4062 56.5811 25.0025 60.0819 29.9132L60.8962 29.3327ZM3.59275 35.1555C7.16436 40.1654 11.1661 43.8805 15.8692 46.34C20.5729 48.7997 25.9484 49.9881 32.2445 49.9881V48.9881C26.0781 48.9881 20.8676 47.8254 16.3327 45.4538C11.7972 43.082 7.90787 39.4857 4.40701 34.575L3.59275 35.1555ZM60.0819 34.575C56.5811 39.4857 52.6918 43.082 48.1563 45.4538C43.6214 47.8254 38.4108 48.9881 32.2445 48.9881V49.9881C38.5405 49.9881 43.9161 48.7997 48.6197 46.34C53.3228 43.8805 57.3246 40.1654 60.8962 35.1555L60.0819 34.575ZM60.0819 29.9132C61.0762 31.3078 61.0762 33.1804 60.0819 34.575L60.8962 35.1555C62.1381 33.4135 62.1381 31.0747 60.8962 29.3327L60.0819 29.9132ZM3.59275 29.3327C2.35087 31.0747 2.35087 33.4135 3.59275 35.1555L4.40701 34.575C3.41278 33.1804 3.41278 31.3078 4.40701 29.9132L3.59275 29.3327ZM54.6464 54.3535L63.6464 63.3535L64.3535 62.6464L55.3535 53.6464L54.6464 54.3535Z" fill="#000577"/>
<path d="M63.0001 63.1579C62.2153 63.9427 62.2153 65.2151 63.0001 65.9998L91.8949 94.4114C92.6796 95.1962 93.952 95.1962 94.7368 94.4114L95.4116 93.7366C96.1963 92.9518 96.1963 91.6794 95.4116 90.8946L66.5168 62.4831C65.732 61.6983 64.4596 61.6983 63.6749 62.4831L63.0001 63.1579Z" fill="#A8ABFF"/>
</svg>
