<svg width="694" height="343" viewBox="0 0 694 343" fill="none" xmlns="http://www.w3.org/2000/svg">
<path d="M330.854 76.5956V57.2362C330.854 56.3465 331.156 55.473 331.731 54.7079C332.305 53.9429 333.129 53.3146 334.117 52.8892C335.104 52.4638 336.219 52.2571 337.343 52.2906C338.467 52.3242 339.558 52.5971 340.502 53.0802L372.673 69.5431C377.607 72.0654 375.821 78.0859 369.989 78.6106L337.814 81.5107C336.939 81.5894 336.052 81.5212 335.213 81.3102C334.374 81.0993 333.6 80.7502 332.943 80.2863C332.286 79.8221 331.76 79.2536 331.401 78.6176C331.041 77.9813 330.854 77.2925 330.854 76.5956V76.5956Z" fill="#E9EEF2"/>
<path d="M433.508 68.0109L387.856 57.1907C385.758 56.6954 383.867 55.761 382.383 54.4869C380.899 53.2125 379.877 51.6453 379.425 49.95C378.972 48.2547 379.105 46.4944 379.811 44.8541C380.517 43.2137 381.768 41.7546 383.435 40.6299L440.251 2.33424C448.952 -3.53237 462.155 2.46717 460.148 11.3703L449.001 60.4861C448.696 61.8232 448.042 63.0941 447.073 64.216C446.105 65.3379 444.849 66.2852 443.386 66.9957C441.923 67.7062 440.286 68.1641 438.584 68.339C436.882 68.514 435.152 68.402 433.508 68.0109V68.0109Z" fill="#F2F6F9"/>
<path d="M361.16 270.936L376.096 245.325C376.781 244.148 377.855 243.139 379.205 242.404C380.554 241.67 382.129 241.237 383.763 241.151C385.398 241.065 387.031 241.329 388.491 241.916C389.952 242.503 391.185 243.391 392.062 244.485L421.933 281.794C426.509 287.514 419.506 294.619 411.383 292.495L366.581 280.797C365.362 280.48 364.242 279.962 363.294 279.277C362.345 278.593 361.591 277.758 361.079 276.827C360.567 275.896 360.31 274.89 360.324 273.875C360.338 272.859 360.623 271.858 361.16 270.936Z" fill="#F2F6F9"/>
<path d="M688.442 98.3235L693.774 110.623C694.017 111.188 694.066 111.795 693.911 112.38C693.757 112.964 693.407 113.505 692.899 113.945C692.386 114.386 691.736 114.709 691.015 114.882C690.29 115.054 689.525 115.07 688.791 114.926L663.819 110.029C662.979 109.865 662.223 109.499 661.652 108.981C661.086 108.464 660.737 107.82 660.648 107.138C660.56 106.456 660.746 105.77 661.17 105.173C661.595 104.576 662.245 104.099 663.027 103.805L682.667 96.4169C683.198 96.2154 683.782 96.1049 684.37 96.093C684.962 96.0811 685.55 96.1682 686.094 96.348C686.638 96.5282 687.129 96.7972 687.536 97.1376C687.938 97.478 688.247 97.882 688.442 98.3235V98.3235Z" fill="#E9EEF2"/>
<path d="M105.55 190.185L116.303 214.998C116.797 216.138 116.893 217.362 116.582 218.541C116.271 219.721 115.564 220.812 114.534 221.701C113.505 222.589 112.193 223.242 110.735 223.589C109.276 223.937 107.727 223.968 106.248 223.677L55.8701 213.767C48.1502 212.252 47.0891 203.912 54.274 201.211L93.8993 186.305C94.9772 185.9 96.1511 185.679 97.3441 185.658C98.537 185.636 99.7224 185.815 100.822 186.181C101.922 186.547 102.912 187.093 103.727 187.783C104.541 188.473 105.163 189.292 105.55 190.185Z" fill="#E9EEF2"/>
<path d="M576.685 28.239L594.331 41.2736C595.135 41.8749 595.719 42.6354 596.024 43.4764C596.334 44.3178 596.347 45.2081 596.073 46.0557C595.794 46.9033 595.237 47.6768 594.454 48.2957C593.672 48.9145 592.695 49.3563 591.625 49.575L554.957 56.8584C549.338 57.9743 545.049 52.9018 548.498 49.2182L567.51 28.9037C568.027 28.3522 568.691 27.8934 569.447 27.5572C570.207 27.2209 571.043 27.0148 571.909 26.952C572.776 26.8894 573.647 26.9715 574.469 27.1933C575.292 27.415 576.048 27.7713 576.685 28.239V28.239Z" fill="#E9EEF2"/>
<path d="M64.0629 43.2012L87.4702 60.4827C88.5455 61.2771 89.3303 62.286 89.7419 63.4037C90.1536 64.5211 90.1766 65.7056 89.8091 66.8327C89.4417 67.9599 88.6971 68.9877 87.6537 69.808C86.6102 70.6287 85.3067 71.2115 83.8799 71.4953L35.2437 81.1505C27.7935 82.6303 22.1075 75.9031 26.6793 71.0055L51.8817 44.0688C52.5692 43.3341 53.4451 42.7226 54.4523 42.2752C55.46 41.8278 56.5755 41.5538 57.726 41.472C58.8769 41.3898 60.0362 41.5017 61.1288 41.7998C62.2209 42.0978 63.2206 42.5753 64.0629 43.2012V43.2012Z" fill="#E9EEF2"/>
<path d="M678.773 145.008L649.706 159.893C647.885 160.826 645.798 161.391 643.636 161.537C641.473 161.684 639.294 161.408 637.3 160.733C635.301 160.059 633.541 159.007 632.18 157.67C630.818 156.333 629.889 154.752 629.478 153.064L621.276 119.25C619.065 110.197 631.649 103.466 641.456 108.444L678.729 127.366C680.595 128.314 682.133 129.618 683.199 131.157C684.265 132.696 684.826 134.422 684.83 136.178C684.835 137.933 684.282 139.66 683.225 141.203C682.164 142.746 680.634 144.054 678.773 145.008Z" fill="#F2F6F9"/>
<path d="M397.615 193.316C390.585 198.878 385.588 194.925 378.558 200.484C371.528 206.042 376.529 210.002 369.499 215.561C362.468 221.12 357.472 217.17 350.438 222.733C343.403 228.295 348.408 232.251 341.378 237.814" stroke="#F2F6F9" stroke-width="20" stroke-linecap="round"/>
<path d="M468.433 264.338C495.316 264.338 517.109 247.095 517.109 225.825C517.109 204.555 495.316 187.313 468.433 187.313C441.55 187.313 419.757 204.555 419.757 225.825C419.757 247.095 441.55 264.338 468.433 264.338Z" fill="#E9EEF2"/>
<path d="M351.039 32.5733C358.333 32.5733 364.246 27.8949 364.246 22.1239C364.246 16.3529 358.333 11.6746 351.039 11.6746C343.745 11.6746 337.832 16.3529 337.832 22.1239C337.832 27.8949 343.745 32.5733 351.039 32.5733Z" fill="#E9EEF2"/>
<path d="M629.154 238.493C646.54 238.493 660.631 227.342 660.631 213.588C660.631 199.834 646.54 188.684 629.154 188.684C611.769 188.684 597.678 199.834 597.678 213.588C597.678 227.342 611.769 238.493 629.154 238.493Z" fill="#E9EEF2"/>
<path d="M15.3337 142.878C23.8022 142.878 30.6674 137.446 30.6674 130.746C30.6674 124.045 23.8022 118.614 15.3337 118.614C6.86514 118.614 0 124.045 0 130.746C0 137.446 6.86514 142.878 15.3337 142.878Z" fill="#E9EEF2"/>
<path d="M72.1585 136.591C84.7071 136.591 94.8805 128.542 94.8805 118.613C94.8805 108.684 84.7071 100.636 72.1585 100.636C59.6095 100.636 49.4365 108.684 49.4365 118.613C49.4365 128.542 59.6095 136.591 72.1585 136.591Z" fill="#F2F6F9"/>
<path d="M38.9305 270.418C50.8617 270.418 60.5337 262.765 60.5337 253.325C60.5337 243.885 50.8617 236.233 38.9305 236.233C26.9993 236.233 17.3271 243.885 17.3271 253.325C17.3271 262.765 26.9993 270.418 38.9305 270.418Z" fill="#F2F6F9"/>
<path d="M339.109 343C484.412 343 602.205 341.947 602.205 340.649C602.205 339.351 484.412 338.298 339.109 338.298C193.805 338.298 76.0137 339.351 76.0137 340.649C76.0137 341.947 193.805 343 339.109 343Z" fill="#E4EFF7"/>
<path d="M348.47 120.447H347.174L343.849 116.249V120.447H342.554V114.548H343.849L347.183 118.746V114.548H348.47V120.447Z" fill="#1D2228"/>
<path d="M355.691 118.526C355.653 119.09 355.335 119.619 354.806 119.999C354.23 120.369 353.501 120.557 352.759 120.527C352.205 120.529 351.661 120.408 351.19 120.177C350.732 119.947 350.369 119.617 350.146 119.226C349.888 118.776 349.757 118.288 349.762 117.795V117.246C349.749 116.739 349.876 116.237 350.133 115.773C350.362 115.37 350.736 115.03 351.207 114.793C351.692 114.557 352.252 114.435 352.821 114.443C353.545 114.417 354.255 114.607 354.811 114.975C355.339 115.365 355.655 115.902 355.695 116.472H354.404C354.388 116.132 354.222 115.806 353.935 115.552C353.626 115.351 353.23 115.25 352.83 115.273C352.58 115.262 352.33 115.301 352.105 115.386C351.878 115.471 351.682 115.599 351.535 115.759C351.196 116.188 351.034 116.689 351.07 117.193V117.718C351.033 118.228 351.187 118.735 351.512 119.177C351.65 119.34 351.839 119.473 352.06 119.561C352.282 119.649 352.529 119.69 352.777 119.68C353.19 119.705 353.599 119.608 353.927 119.407C354.218 119.162 354.39 118.842 354.413 118.505L355.691 118.526Z" fill="#1D2228"/>
<path d="M361.204 117.812H358.144V119.628H361.721V120.447H356.857V114.548H361.721V115.374H358.184V117.001H361.244L361.204 117.812Z" fill="#1D2228"/>
<path d="M364.074 119.628H367.456V120.447H362.778V114.548H364.074V119.628Z" fill="#1D2228"/>
<path d="M294.594 136.01L286.065 143.665" stroke="#1F2128" stroke-width="8" stroke-linecap="round"/>
<path d="M250.427 340.649H189.893L200.5 317.183L224.331 325.008L250.427 340.649Z" fill="#3361C2"/>
<path d="M150.495 340.649H94.0898L104.693 317.183L124.399 325.008L150.495 340.649Z" fill="#3361C2"/>
<path d="M263.578 138.778C263.578 138.778 280.021 135.486 286.654 137.886C293.286 140.285 296.779 144.669 295.78 149.332C295.293 151.588 278.2 161.702 278.2 161.702L260.655 150.248L263.578 138.778Z" fill="#EF6E45"/>
<path d="M279.437 247.7L238.318 330.109L191.158 322.633L226.8 240.917L201.986 223.009L208.079 231.163C210.715 234.673 212.025 238.706 211.855 242.785C211.685 246.865 210.042 250.821 207.12 254.186L141.682 330.123L95.8223 317.382L150.206 245.797L129.377 188.929C126.105 179.987 125.875 167.484 129.735 158.669L137.384 143.769L196.548 142.57C196.743 142.57 253.143 202.39 275.807 226.479C278.655 229.476 280.484 233 281.119 236.715C281.755 240.43 281.176 244.212 279.437 247.7V247.7Z" fill="#24272D"/>
<path d="M196.702 109.987L190.025 135.661C189.253 138.63 189.384 141.701 190.41 144.622C191.435 147.543 193.326 150.228 195.923 152.456C198.521 154.684 201.752 156.391 205.349 157.435C208.946 158.478 212.805 158.83 216.607 158.459L266.097 153.649L265.854 136.346L227.612 134.405C227.612 134.405 235.775 97.057 218.177 89.0565C193.444 77.813 181.695 83.4592 173.578 91.054C167.246 96.9836 159.955 111.309 154.751 118.341C149.547 125.372 137.388 143.745 137.388 143.745L192.784 149.318" fill="#3361C2"/>
<path d="M199.236 92.3099C197.787 92.3095 196.36 92.0276 195.081 91.4881C193.801 90.949 192.709 90.1693 191.9 89.2177C191.092 88.2659 190.591 87.1716 190.442 86.0308C190.294 84.89 190.501 83.7377 191.048 82.6756L205.493 54.5565C206.379 52.8374 208.092 51.4668 210.255 50.7468C212.417 50.0269 214.854 50.016 217.026 50.7171C219.199 51.4181 220.931 52.7734 221.841 54.4844C222.751 56.1957 222.765 58.1233 221.879 59.8423L207.429 87.9615C206.764 89.2482 205.63 90.3491 204.171 91.1236C202.711 91.8981 200.994 92.3113 199.236 92.3099V92.3099Z" fill="#EF6E45"/>
<path d="M209.596 79.433L211.492 80.0347C213.696 80.7305 216.067 81.0334 218.436 80.9222C220.805 80.8109 223.114 80.2879 225.198 79.3903C227.283 78.493 229.092 77.2434 230.496 75.73C231.901 74.2167 232.867 72.477 233.326 70.6348L235.598 61.5078C236.331 58.5605 235.728 55.503 233.895 52.8723C232.061 50.2419 229.116 48.2063 225.575 47.1229V47.1229C221.579 45.9013 217.135 45.9852 213.218 47.3562C209.301 48.7275 206.233 51.2736 204.688 54.4343L200.523 62.9596C198.989 66.0975 199.081 69.5874 200.78 72.6715C202.479 75.7559 205.647 78.1855 209.596 79.433V79.433Z" fill="#EF6E45"/>
<path d="M127.886 54.8364C122.921 74.7766 147.407 78.6247 147.407 78.6247C147.407 78.6247 130.645 99.506 161.516 100.339C192.387 101.171 203.153 84.6208 203.348 74.6332C203.423 70.6557 201.27 67.3813 198.767 64.1838C215.834 63.5996 216.851 54.4341 216.851 54.4341C216.851 54.4341 242.593 65.0864 244.662 48.69C246.731 32.2935 226.247 25.2095 213.685 24.272C211.037 24.085 208.369 24.2171 205.771 24.6638C197.405 26.0456 190.627 29.2745 179.896 28.4734C150.246 26.259 145.559 39.2201 145.559 39.2201C145.559 39.2201 131.242 41.3541 127.886 54.8364Z" fill="#24272D"/>
<path d="M235.303 61.6405L237.681 72.0689L232.681 71.5896" fill="#EF6E45"/>
<path d="M230.09 64.9324C231.393 64.9324 232.451 64.096 232.451 63.0644C232.451 62.0327 231.393 61.1963 230.09 61.1963C228.786 61.1963 227.729 62.0327 227.729 63.0644C227.729 64.096 228.786 64.9324 230.09 64.9324Z" fill="white"/>
<path d="M225.968 72.6286C225.968 72.6286 223.673 72.1879 224.199 70.3163L225.968 72.6286Z" fill="#3361C2"/>
<path d="M225.968 72.6286C225.968 72.6286 223.673 72.1879 224.199 70.3163" stroke="white" stroke-width="3" stroke-linecap="square"/>
<path d="M207.302 68.0478L208.404 67.7882C211.95 66.9542 213.97 64.0034 212.915 61.1978L210.702 55.3095C209.648 52.5039 205.919 50.9058 202.373 51.7402L201.27 51.9994C197.724 52.8334 195.705 55.7842 196.759 58.5898L198.972 64.4781C200.027 67.2837 203.756 68.8817 207.302 68.0478Z" fill="#EF6E45"/>
<path d="M202.172 54.399L205.245 62.5675" stroke="white" stroke-width="3" stroke-linecap="square"/>
<path d="M196.703 109.987L189.187 140.156C188.36 142.64 189.288 146.586 192.773 149.304" stroke="white" stroke-width="3"/>
<path d="M223.842 239.437L161.729 192.728C161.729 192.728 154.495 188.079 154.495 176.548" stroke="white" stroke-width="3"/>
<path d="M323.162 119.205C323.077 120.512 322.342 121.739 321.119 122.619C319.94 123.433 318.361 123.841 316.383 123.843C315.102 123.864 313.84 123.596 312.745 123.07C311.681 122.539 310.837 121.772 310.317 120.866C309.725 119.824 309.424 118.693 309.433 117.55V116.273C309.41 115.1 309.712 113.937 310.317 112.866C310.845 111.93 311.711 111.139 312.806 110.592C313.933 110.05 315.233 109.773 316.551 109.794C318.458 109.794 319.994 110.203 321.159 111.019C322.323 111.835 322.999 112.992 323.188 114.489H320.195C320.053 113.505 319.692 112.796 319.111 112.362C318.397 111.891 317.48 111.657 316.551 111.708C315.97 111.687 315.392 111.779 314.866 111.976C314.341 112.174 313.886 112.471 313.54 112.841C312.842 113.597 312.484 114.705 312.466 116.165V117.379C312.466 118.859 312.8 119.987 313.47 120.761C313.789 121.141 314.229 121.449 314.744 121.653C315.259 121.858 315.834 121.954 316.41 121.93C317.586 121.93 318.475 121.72 319.063 121.3C319.651 120.88 320.031 120.181 320.19 119.201L323.162 119.205Z" fill="#1D2228"/>
<path fill-rule="evenodd" clip-rule="evenodd" d="M328.821 120.471H335.52L336.93 123.658H340.065L333.526 109.98H330.829L324.303 123.658H327.424L328.821 120.471ZM334.68 118.558H329.671L332.178 112.884L334.68 118.558Z" fill="#1D2228"/>
<path fill-rule="evenodd" clip-rule="evenodd" d="M312.378 140.429C328.138 140.429 340.914 130.32 340.914 117.851C340.914 105.382 328.138 95.2729 312.378 95.2729C296.618 95.2729 283.842 105.382 283.842 117.851C283.842 130.32 296.618 140.429 312.378 140.429Z" stroke="#1F2128" stroke-width="8"/>
</svg>
