<svg width="113" height="84" viewBox="0 0 113 84" fill="none" xmlns="http://www.w3.org/2000/svg">
<path d="M9.61489 22.0173L4.44482 17.2393C-0.148274 13.7638 -0.148274 7.68179 4.44482 3.7719C9.03792 -0.137993 17.0759 0.296439 22.2431 3.7719L29.7097 8.98438" fill="white"/>
<path d="M9.27553 22.3846C9.47833 22.572 9.79467 22.5595 9.98209 22.3567C10.1695 22.1539 10.1571 21.8376 9.95425 21.6502L9.27553 22.3846ZM4.44482 17.2393L4.78418 16.8721C4.77215 16.861 4.75958 16.8505 4.74652 16.8406L4.44482 17.2393ZM22.2431 3.7719L22.5294 3.36186L22.5222 3.35701L22.2431 3.7719ZM9.95425 21.6502L4.78418 16.8721L4.10546 17.6065L9.27553 22.3846L9.95425 21.6502ZM4.74652 16.8406C2.56756 15.1918 1.5 12.9466 1.5 10.6685C1.5 8.38712 2.57141 6.02327 4.76892 4.15263L4.12072 3.39116C1.72514 5.43041 0.5 8.06254 0.5 10.6685C0.5 13.2778 1.72898 15.8113 4.14312 17.638L4.74652 16.8406ZM4.76892 4.15263C6.94935 2.29654 9.97753 1.44948 13.1203 1.50232C16.2613 1.55514 19.467 2.50726 21.9641 4.18678L22.5222 3.35701C19.852 1.56108 16.4551 0.558254 13.1371 0.502462C9.82074 0.446699 6.53339 1.33737 4.12072 3.39116L4.76892 4.15263ZM21.9569 4.18188L29.4235 9.39436L29.9959 8.5744L22.5293 3.36192L21.9569 4.18188Z" fill="#2A3693"/>
<path d="M101.758 22.0178L108.071 17.2398C112.664 13.7643 112.664 7.68226 108.071 3.77237C103.478 0.296907 95.4401 0.296907 90.2729 3.77237L84.5344 8.98486" fill="white"/>
<path d="M101.758 22.0178L108.071 17.2398C112.664 13.7643 112.664 7.68226 108.071 3.77237C103.478 0.296907 95.4401 0.296907 90.2729 3.77237L84.5344 8.98486" stroke="#2A3693" stroke-miterlimit="10" stroke-linecap="round" stroke-linejoin="round"/>
<path d="M6.74168 82.8373V38.5693C6.74168 18.3694 28.8186 2.46727 55.5433 2.46727C82.268 2.46727 104.345 18.7991 104.345 38.5693V82.8373" fill="white"/>
<path d="M6.74168 82.8373V38.5693C6.74168 18.3694 28.8186 2.46727 55.5433 2.46727C82.268 2.46727 104.345 18.7991 104.345 38.5693V82.8373" stroke="#2A3693" stroke-miterlimit="10" stroke-linecap="round" stroke-linejoin="round"/>
<path d="M49.8003 26.3616H61.2831" stroke="#2A3693" stroke-miterlimit="10" stroke-linecap="round" stroke-linejoin="round"/>
<path d="M55.5419 27.6663V33.3139" stroke="#2A3693" stroke-miterlimit="10" stroke-linecap="round" stroke-linejoin="round"/>
<path d="M41.191 22.0167C41.191 19.5342 39.3455 17.6724 36.8849 17.6724C34.4243 17.6724 32.5788 19.5342 32.5788 22.0167" fill="white"/>
<path d="M41.191 22.0167C41.191 19.5342 39.3455 17.6724 36.8849 17.6724C34.4243 17.6724 32.5788 19.5342 32.5788 22.0167" stroke="#2A3693" stroke-width="0.5" stroke-miterlimit="10" stroke-linecap="round" stroke-linejoin="round"/>
<path d="M76.7882 22.0167C76.7882 19.5342 74.9429 17.6724 72.4823 17.6724C70.0217 17.6724 68.1762 19.5342 68.1762 22.0167" fill="white"/>
<path d="M76.7882 22.0167C76.7882 19.5342 74.9429 17.6724 72.4823 17.6724C70.0217 17.6724 68.1762 19.5342 68.1762 22.0167" stroke="#2A3693" stroke-width="0.5" stroke-miterlimit="10" stroke-linecap="round" stroke-linejoin="round"/>
<path d="M64.1543 39.3948H69.8956C72.7663 39.3948 75.637 41.224 75.637 43.9677C75.637 46.2542 73.3405 48.0834 69.8956 48.0834H68.7475" stroke="#2A3693" stroke-miterlimit="10" stroke-linecap="round" stroke-linejoin="round"/>
<path d="M68.3526 48.084H70.1656C73.1874 48.084 76.2091 49.9132 76.2091 52.1997C76.2091 54.4862 73.7917 56.7726 70.1656 56.7726H64.7264" stroke="#2A3693" stroke-miterlimit="10" stroke-linecap="round" stroke-linejoin="round"/>
<path d="M107.215 34.1816C104.919 32.8783 101.474 33.3127 99.7517 35.4849C98.6034 36.7882 98.0294 38.0915 98.0294 38.0915C98.0294 38.0915 97.4551 36.7882 96.3068 35.4849C94.5844 33.3127 91.1397 32.8783 88.8431 34.1816C86.5466 35.4849 85.3982 38.5259 87.1206 40.6981C88.843 42.8703 98.0294 48.0834 98.0294 48.0834C99.1776 47.649 107.216 42.8703 108.938 40.6981C110.66 38.0915 109.512 35.4849 107.215 34.1816Z" fill="#2A3693" stroke="#2A3693" stroke-miterlimit="10" stroke-linecap="round" stroke-linejoin="round"/>
</svg>
