<svg width="784" height="323" viewBox="0 0 784 323" fill="none" xmlns="http://www.w3.org/2000/svg">
<path d="M63.0272 113.818C62.4464 117.762 59.9147 121.479 55.8085 124.418C51.7018 127.356 46.2399 129.358 40.2346 130.127C34.2292 130.896 28.0006 130.39 22.4749 128.685C16.9491 126.979 12.4211 124.166 9.56387 120.662C8.94993 119.909 8.41556 119.131 7.96444 118.331C6.51335 115.735 5.98288 112.961 6.41233 110.215C6.84178 107.469 8.22013 104.82 10.4454 102.465C12.6707 100.11 15.6858 98.1094 19.2676 96.6107C22.8495 95.1117 26.9064 94.1535 31.138 93.8068C35.3696 93.4599 39.6675 93.7334 43.7137 94.6071C47.76 95.4807 51.4506 96.9318 54.5126 98.8535C57.575 100.775 59.9303 103.118 61.4039 105.708C62.8779 108.298 63.4326 111.07 63.0272 113.818Z" fill="#EDF1F5"/>
<path d="M355.133 242.915C354.764 245.442 353.589 247.892 351.683 250.11C349.776 252.328 347.179 254.265 344.057 255.801C343.033 256.305 341.958 256.765 340.84 257.177C335.302 259.21 328.87 259.982 322.574 259.368C316.278 258.754 310.482 256.791 306.114 253.793C301.747 250.795 299.061 246.935 298.485 242.831C297.91 238.728 299.479 234.618 302.941 231.16C306.404 227.702 311.559 225.096 317.582 223.759C323.604 222.422 330.146 222.432 336.159 223.787C342.172 225.141 347.309 227.763 350.746 231.231C354.184 234.699 355.724 238.814 355.12 242.915H355.133Z" fill="#EDF1F5"/>
<path d="M461.621 182.835C461.439 184.099 460.854 185.324 459.902 186.433C458.949 187.543 457.651 188.512 456.092 189.281C455.578 189.531 455.042 189.761 454.483 189.969C452.826 190.575 450.996 190.96 449.109 191.101C447.217 191.243 445.303 191.137 443.473 190.791C441.648 190.446 439.947 189.866 438.472 189.088C436.997 188.309 435.778 187.347 434.887 186.259C434.581 185.882 434.314 185.492 434.089 185.092C433.364 183.794 433.099 182.407 433.313 181.034C433.528 179.661 434.217 178.337 435.33 177.159C436.443 175.981 437.95 174.981 439.741 174.232C441.532 173.482 443.562 173.003 445.675 172.83C447.793 172.656 449.942 172.793 451.962 173.23C453.987 173.667 455.835 174.392 457.363 175.353C458.896 176.314 460.07 177.485 460.81 178.78C461.546 180.076 461.825 181.461 461.621 182.835Z" fill="#EDF1F5"/>
<path d="M114.81 304.857C114.625 306.121 114.038 307.345 113.086 308.455C112.134 309.565 110.837 310.534 109.277 311.302C108.765 311.555 108.228 311.784 107.668 311.99C106.011 312.598 104.182 312.988 102.289 313.129C100.397 313.272 98.479 313.169 96.6501 312.822C94.8207 312.475 93.1181 311.896 91.6423 311.116C90.1665 310.336 88.9476 309.37 88.0588 308.28C87.75 307.905 87.4833 307.515 87.2613 307.113C86.5356 305.814 86.2707 304.429 86.4851 303.056C86.7 301.683 87.3889 300.358 88.5019 299.18C89.6144 298.004 91.1221 297.003 92.9129 296.252C94.7038 295.504 96.7321 295.025 98.8481 294.85C100.964 294.678 103.113 294.816 105.136 295.251C107.159 295.687 109.004 296.413 110.535 297.373C112.067 298.337 113.244 299.506 113.981 300.802C114.718 302.096 114.995 303.483 114.793 304.857H114.81Z" fill="#EDF1F5"/>
<path d="M653.522 94.5383C653.34 95.8014 652.751 97.026 651.798 98.1347C650.85 99.2438 649.552 100.213 647.993 100.981C647.479 101.233 646.943 101.463 646.384 101.669C644.727 102.277 642.902 102.663 641.01 102.805C639.118 102.948 637.204 102.843 635.374 102.498C633.549 102.152 631.848 101.573 630.372 100.794C628.897 100.016 627.679 99.0537 626.788 97.9647C626.482 97.5888 626.216 97.2 625.991 96.8006C625.264 95.5029 624.998 94.116 625.215 92.7429C625.428 91.3695 626.119 90.0454 627.231 88.8678C628.343 87.6902 629.85 86.6898 631.644 85.9403C633.434 85.1911 635.463 84.712 637.576 84.5385C639.694 84.3651 641.843 84.5018 643.863 84.9385C645.888 85.3755 647.736 86.1012 649.264 87.0617C650.797 88.0225 651.971 89.1941 652.711 90.4892C653.447 91.7844 653.726 93.1701 653.522 94.5441V94.5383Z" fill="#EDF1F5"/>
<path d="M777.936 44.7115C777.754 45.9745 777.165 47.1991 776.217 48.3079C775.264 49.4169 773.966 50.3861 772.406 51.1542C771.897 51.4065 771.356 51.6365 770.798 51.8423C769.141 52.4505 767.316 52.837 765.424 52.9792C763.532 53.1214 761.618 53.0165 759.788 52.6704C757.963 52.3243 756.261 51.7443 754.786 50.9647C753.311 50.1851 752.092 49.222 751.206 48.1321C750.896 47.7571 750.63 47.368 750.409 46.968C749.682 45.67 749.416 44.2829 749.629 42.9089C749.842 41.5352 750.533 40.2099 751.645 39.0318C752.757 37.8536 754.263 36.8524 756.053 36.1026C757.848 35.3525 759.877 34.8731 761.99 34.6997C764.108 34.5262 766.257 34.663 768.282 35.1002C770.306 35.5375 772.154 36.2637 773.682 37.2251C775.215 38.1865 776.389 39.3587 777.129 40.6546C777.865 41.9506 778.139 43.3372 777.936 44.7115Z" fill="#EDF1F5"/>
<path d="M28.3711 54.2884C28.1871 55.5514 27.6004 56.7763 26.6479 57.8851C25.6955 58.9941 24.3979 59.9633 22.8374 60.7311C19.9921 62.1389 16.4291 62.7975 12.8642 62.5747C10.0652 62.4016 7.40838 61.6951 5.22975 60.5447C3.05107 59.3944 1.44838 57.8518 0.624313 56.1123C-0.199756 54.3724 -0.2082 52.5136 0.600047 50.7706C1.40829 49.0279 2.99694 47.4793 5.16511 46.3206C7.33328 45.162 9.98363 44.4455 12.781 44.2617C15.5784 44.0779 18.3972 44.4349 20.881 45.2876C23.3649 46.1406 25.4022 47.4509 26.7354 49.0528C28.0686 50.655 28.6379 52.4769 28.3711 54.2884Z" fill="#EDF1F5"/>
<path d="M664.109 314.06C663.888 315.566 663.095 317.014 661.801 318.275C660.507 319.537 658.753 320.572 656.692 321.289C654.632 322.005 652.333 322.384 649.993 322.39C647.654 322.395 645.35 322.025 643.286 321.317C640.773 320.449 638.718 319.112 637.384 317.484C637.078 317.108 636.808 316.718 636.582 316.317C635.856 315.018 635.59 313.633 635.807 312.26C636.019 310.886 636.711 309.562 637.823 308.383C638.935 307.208 640.441 306.207 642.236 305.456C644.025 304.707 646.055 304.229 648.168 304.054C650.286 303.882 652.435 304.019 654.455 304.455C656.48 304.891 658.327 305.616 659.856 306.577C661.389 307.54 662.563 308.71 663.303 310.006C664.038 311.299 664.317 312.687 664.114 314.06H664.109Z" fill="#EDF1F5"/>
<path d="M377.556 282.59C377.373 283.853 376.786 285.077 375.835 286.186C374.883 287.295 373.587 288.264 372.027 289.032C371.515 289.285 370.978 289.514 370.418 289.72C368.763 290.328 366.935 290.715 365.044 290.856C363.152 290.999 361.237 290.893 359.409 290.549C357.582 290.202 355.881 289.623 354.406 288.843C352.932 288.063 351.715 287.1 350.827 286.01C350.519 285.635 350.252 285.246 350.029 284.846C349.302 283.548 349.035 282.161 349.249 280.787C349.462 279.413 350.151 278.088 351.263 276.91C352.375 275.732 353.884 274.73 355.675 273.981C357.466 273.231 359.495 272.751 361.612 272.578C363.729 272.404 365.878 272.541 367.902 272.978C369.926 273.416 371.772 274.142 373.303 275.103C374.834 276.065 376.012 277.237 376.748 278.533C377.484 279.829 377.76 281.215 377.556 282.59Z" fill="#EDF1F5"/>
<path d="M783.886 286.552C783.518 289.078 782.344 291.53 780.435 293.746C778.529 295.965 775.933 297.904 772.81 299.438C771.786 299.942 770.709 300.404 769.593 300.817C764.263 302.778 758.096 303.569 752.013 303.073C745.925 302.577 740.254 300.822 735.841 298.067C732.7 296.112 730.294 293.717 728.81 291.065C727.357 288.47 726.829 285.696 727.259 282.949C727.689 280.203 729.067 277.554 731.291 275.2C733.515 272.845 736.532 270.844 740.112 269.345C743.696 267.846 747.75 266.888 751.982 266.541C756.213 266.194 760.515 266.468 764.56 267.341C768.605 268.215 772.296 269.666 775.357 271.588C778.419 273.509 780.776 275.852 782.251 278.442C783.722 281.033 784.276 283.804 783.873 286.552H783.886Z" fill="#EDF1F5"/>
<path d="M486.237 20.148C485.869 22.6747 484.695 25.1244 482.785 27.3423C480.88 29.5603 478.284 31.498 475.16 33.0334C474.137 33.5397 473.065 33.9996 471.944 34.4097C466.614 36.3697 460.446 37.1613 454.363 36.6662C448.28 36.1713 442.607 34.416 438.192 31.6628C436.01 30.3015 434.175 28.7251 432.756 26.9921C430.697 24.4607 429.577 21.6538 429.484 18.7937C429.392 15.9336 430.33 13.0989 432.224 10.5141C435.092 6.60369 439.998 3.47249 446.078 1.67065C452.161 -0.131199 459.029 -0.488437 465.48 0.661694C471.926 1.81183 477.539 4.39574 481.336 7.95949C485.133 11.5232 486.87 15.8388 486.237 20.148Z" fill="#EDF1F5"/>
<path d="M39.7663 290.632L127.013 246.775" stroke="#F9D0B5" stroke-width="14"/>
<path d="M371.853 95.7371L578.618 176.155" stroke="#F9D0B5" stroke-width="14"/>
<path d="M488.546 287.877L628.981 233.783" stroke="#F9D0B5" stroke-width="14"/>
<path d="M254.613 128.556L215.353 167.023" stroke="#F9D0B5" stroke-width="14"/>
<path d="M739.367 95.7371L700.112 158.596" stroke="#F9D0B5" stroke-width="14"/>
<path d="M586.699 30.9373L737.204 89.6928" stroke="#F9D0B5" stroke-width="14"/>
<path d="M110.11 27.9297L254.067 59.7446" stroke="#F9D0B5" stroke-width="14"/>
<path d="M275.981 214.974C273.491 232.061 261.085 247.902 241.263 259.305C239.272 260.452 237.218 261.547 235.1 262.591C231.32 264.457 227.35 266.156 223.218 267.677C204.686 274.502 183.374 277.497 162.138 276.262L161.389 276.219C145.184 275.219 129.559 271.796 115.746 266.22C101.934 260.644 90.3129 253.068 81.7991 244.088C80.6175 242.838 79.4908 241.562 78.4186 240.26C70.8056 230.909 66.6586 220.54 66.3055 209.973C65.9529 199.405 69.4034 188.93 76.385 179.375C94.7984 154.24 136.087 138.018 181.349 140.813C239.141 144.38 281.497 177.585 275.981 214.974Z" fill="#F9D0B5"/>
<path d="M63.0263 294.497C62.6608 297.026 61.4876 299.48 59.5811 301.7C57.6742 303.922 55.0757 305.863 51.95 307.4C50.9265 307.904 49.8517 308.363 48.7334 308.776C45.4211 309.992 41.7658 310.763 37.9838 311.047C34.2018 311.331 30.3702 311.121 26.716 310.43C23.0619 309.736 19.6596 308.578 16.7108 307.018C13.7621 305.461 11.3269 303.535 9.54958 301.355C8.9348 300.604 8.40043 299.824 7.95016 299.024C6.49907 296.43 5.9686 293.654 6.39805 290.91C6.8275 288.163 8.20584 285.514 10.4311 283.159C12.6564 280.804 15.6715 278.803 19.2534 277.304C22.8353 275.805 26.8922 274.847 31.1237 274.5C35.3553 274.153 39.6533 274.427 43.6994 275.301C47.7454 276.174 51.4365 277.625 54.4984 279.547C57.5608 281.469 59.9157 283.811 61.3897 286.401C62.8637 288.992 63.4184 291.765 63.013 294.511L63.0263 294.497Z" fill="#F9D0B5"/>
<path d="M755.092 212.787C753.621 222.661 748.827 232.207 741.047 240.756C733.271 249.304 722.7 256.648 710.073 262.273C697.446 267.897 683.069 271.666 667.952 273.314C652.839 274.963 637.35 274.451 622.57 271.816C607.794 269.18 594.086 264.484 582.407 258.057C570.732 251.63 561.366 243.628 554.973 234.612C548.584 225.595 545.314 215.783 545.403 205.863C545.491 195.943 548.93 186.155 555.482 177.187C573.896 152.053 615.184 135.83 660.446 138.625C718.238 142.192 760.617 175.398 755.092 212.787Z" fill="#F9D0B5"/>
<path d="M406.066 80.7158C404.598 90.5923 399.808 100.141 392.033 108.693C384.257 117.245 373.684 124.592 361.057 130.218C348.428 135.845 334.051 139.616 318.932 141.266C303.813 142.915 288.32 142.404 273.539 139.768C258.758 137.131 245.048 132.434 233.369 126.005C221.691 119.576 212.328 111.571 205.937 102.552C199.546 93.5327 196.282 83.7178 196.375 73.7957C196.467 63.8736 199.912 54.0849 206.47 45.1161C224.883 19.9762 266.167 3.75905 311.434 6.55461C369.213 10.1215 411.582 43.327 406.066 80.7158Z" fill="#F9D0B5"/>
<path d="M143.184 30.1575C142.602 34.1011 140.07 37.8182 135.964 40.756C131.857 43.6941 126.395 45.696 120.389 46.4644C114.384 47.2328 108.156 46.7268 102.631 45.0213C97.1055 43.3162 92.5775 40.5025 89.7207 36.9988C89.1048 36.247 88.5718 35.468 88.1257 34.6677C86.6764 32.0726 86.1474 29.2997 86.5781 26.5543C87.0087 23.8089 88.3875 21.1613 90.613 18.8074C92.8384 16.4536 95.853 14.4537 99.4342 12.9557C103.015 11.4577 107.071 10.5 111.301 10.1535C115.531 9.80698 119.828 10.0805 123.873 10.9538C127.918 11.827 131.607 13.2778 134.669 15.1986C137.73 17.1194 140.085 19.4611 141.559 22.0504C143.033 24.6398 143.588 27.4105 143.184 30.1575Z" fill="#F9D0B5"/>
<path d="M507.091 292.381C506.586 295.827 504.587 299.113 501.331 301.857C498.07 304.604 493.679 306.697 488.664 307.898C483.644 309.103 478.208 309.364 472.971 308.655C467.734 307.947 462.909 306.299 459.059 303.896C455.922 301.94 453.517 299.546 452.032 296.894C450.584 294.299 450.052 291.527 450.486 288.78C450.916 286.035 452.294 283.388 454.518 281.034C456.742 278.68 459.759 276.68 463.339 275.182C466.919 273.684 470.973 272.726 475.204 272.379C479.435 272.033 483.733 272.306 487.778 273.179C491.823 274.052 495.509 275.502 498.571 277.423C501.632 279.344 503.989 281.685 505.465 284.274C506.94 286.864 507.494 289.634 507.091 292.381Z" fill="#F9D0B5"/>
<path d="M769.894 92.0383C769.314 95.9822 766.779 99.6996 762.677 102.638C758.57 105.576 753.107 107.579 747.103 108.347C741.096 109.116 734.866 108.61 729.341 106.905C723.816 105.2 719.288 102.386 716.431 98.8824C715.815 98.1301 715.283 97.3511 714.831 96.5514C713.378 93.9557 712.851 91.1819 713.281 88.4357C713.71 85.6894 715.088 83.0407 717.312 80.6858C719.537 78.3309 722.554 76.3299 726.134 74.8312C729.718 73.3322 733.772 72.3739 738.003 72.0273C742.239 71.6804 746.536 71.9539 750.581 72.8275C754.626 73.7009 758.317 75.1523 761.379 77.0739C764.44 78.9955 766.797 81.3381 768.273 83.9283C769.744 86.5189 770.297 89.2904 769.894 92.0383Z" fill="#F9D0B5"/>
<path d="M606.929 28.8186C606.562 31.3452 605.387 33.795 603.478 36.0128C601.573 38.2309 598.976 40.1686 595.853 41.704C594.829 42.2104 593.757 42.6703 592.636 43.0803C587.306 45.0403 581.139 45.832 575.056 45.3368C568.973 44.8419 563.297 43.0866 558.884 40.3335C555.748 38.3777 553.342 35.9824 551.858 33.3317C550.409 30.7365 549.882 27.9637 550.311 25.2184C550.741 22.4731 552.119 19.8256 554.343 17.4717C556.567 15.1178 559.584 13.1178 563.164 11.6197C566.744 10.1216 570.803 9.16376 575.029 8.81702C579.261 8.47029 583.558 8.74354 587.603 9.61658C591.648 10.4896 595.335 11.9401 598.4 13.8606C601.462 15.7812 603.815 18.1227 605.29 20.7118C606.765 23.301 607.319 26.0716 606.916 28.8186H606.929Z" fill="#F9D0B5"/>
<path d="M548.393 171.578L551.1 168.393C552.239 166.803 553.249 165.176 554.13 163.518C555.495 160.918 555.017 157.21 560.993 153.71C566.97 150.209 558.131 151.175 555.145 152.789C552.655 154.134 550.63 157.95 548.154 158.81C547.587 158.292 547.139 157.725 546.825 157.124L541.41 140.707C541.331 140.444 541.109 140.208 540.786 140.042C540.458 139.877 540.05 139.793 539.638 139.806L538.646 139.826C538.406 139.835 538.172 139.875 537.955 139.946C537.742 140.016 537.551 140.115 537.401 140.236C537.246 140.357 537.135 140.496 537.073 140.647C537.006 140.797 536.993 140.954 537.029 141.108C537.862 144.62 540.755 155.072 540.462 155.077L539.864 155.261L531.561 138.631C531.446 138.368 531.185 138.142 530.83 137.996C530.471 137.85 530.046 137.794 529.63 137.839L528.3 137.983C528.07 138.006 527.848 138.06 527.654 138.141C527.454 138.221 527.286 138.327 527.153 138.452C527.024 138.576 526.931 138.717 526.887 138.865C526.843 139.013 526.847 139.166 526.896 139.313C528.172 143.138 534.14 155.866 533.839 155.877L533.108 156.038L524.1 142.275C523.976 142.001 523.693 141.768 523.307 141.625C522.926 141.482 522.474 141.44 522.044 141.507L520.986 141.676C520.764 141.711 520.556 141.774 520.374 141.86C520.193 141.947 520.037 142.057 519.918 142.182C519.803 142.308 519.723 142.448 519.687 142.593C519.652 142.738 519.665 142.886 519.718 143.029L527.822 156.568L527.078 156.872L518.589 147.092C518.425 146.84 518.123 146.636 517.742 146.518C517.366 146.399 516.932 146.375 516.524 146.45L516.019 146.547C515.585 146.63 515.221 146.817 515 147.071C514.778 147.325 514.716 147.624 514.832 147.906C515.647 149.913 519.705 154.125 522.067 158.515C523.914 161.916 524.043 164.64 527.091 168.757C528.376 170.503 530.821 172.576 532.155 173.732" fill="#3361C2"/>
<path d="M702.328 265.489C682.625 272.719 659.839 275.636 637.363 273.806C614.891 271.976 593.93 265.497 577.608 255.333L578.875 234.308L538.203 229.961C532.2 228.894 526.98 226.477 523.485 223.144C519.989 219.811 518.443 215.781 519.125 211.777L522.452 170.506L554.587 171.94L555.473 177.193L560.44 204.913C560.44 204.913 594.059 207.634 639.937 215.235C684.597 222.635 697.751 248.3 702.328 265.489Z" fill="#EF6E45"/>
<path d="M578.432 234.041L578.809 226.876" stroke="white" stroke-width="3" stroke-linecap="square"/>
<path d="M667.335 189.5C679.652 179.338 677.897 165.141 663.414 157.789C648.935 150.438 627.208 152.717 614.891 162.879C602.574 173.041 604.328 187.238 618.812 194.589C633.295 201.941 655.018 199.662 667.335 189.5Z" fill="#24272D"/>
<path d="M618.781 223.453C616.362 222.319 614.581 220.707 613.708 218.86C612.831 217.013 612.911 215.032 613.93 213.217L629.924 184.796C630.469 183.644 631.373 182.575 632.578 181.655C633.778 180.735 635.263 179.983 636.929 179.445C638.599 178.907 640.415 178.595 642.276 178.526C644.137 178.458 645.998 178.635 647.748 179.047C649.502 179.459 651.102 180.097 652.462 180.923C653.818 181.749 654.903 182.744 655.648 183.85C656.392 184.955 656.782 186.147 656.791 187.353C656.8 188.559 656.432 189.753 655.705 190.864L639.706 219.287C638.975 220.575 637.797 221.737 636.26 222.681C634.722 223.625 632.866 224.326 630.841 224.729C628.812 225.131 626.667 225.225 624.576 225.002C622.485 224.779 620.5 224.246 618.781 223.444V223.453Z" fill="#3361C2"/>
<path d="M621.496 207.605L618.838 206.966C615.746 206.223 612.946 205.049 610.637 203.526C608.324 202.003 606.566 200.17 605.471 198.156C604.381 196.142 603.991 193.998 604.328 191.875C604.665 189.752 605.719 187.704 607.416 185.875L615.834 176.814C618.55 173.888 622.772 171.675 627.761 170.563C632.746 169.452 638.177 169.513 643.104 170.736C648.66 172.116 653.139 174.867 655.563 178.385C657.982 181.904 658.146 185.9 656.015 189.496L650.255 199.196C648.137 202.766 643.933 205.651 638.545 207.226C633.162 208.8 627.035 208.937 621.496 207.605Z" fill="#3361C2"/>
<path d="M623.619 181.955L612.095 188.011L616.618 190.21" stroke="white" stroke-width="3" stroke-linecap="square"/>
<path d="M626.548 186.233C627.89 186.233 628.98 185.528 628.98 184.659C628.98 183.789 627.89 183.085 626.548 183.085C625.206 183.085 624.116 183.789 624.116 184.659C624.116 185.528 625.206 186.233 626.548 186.233Z" fill="white"/>
<path d="M616.433 182.921C617.776 182.921 618.865 182.217 618.865 181.347C618.865 180.478 617.776 179.773 616.433 179.773C615.091 179.773 614.001 180.478 614.001 181.347C614.001 182.217 615.091 182.921 616.433 182.921Z" fill="white"/>
<path d="M690.17 231.739C690.17 231.739 678.951 249.914 657.1 241.84C620.925 228.47 628.355 210.888 638.554 202.846C642.617 199.643 648.301 198.224 654.233 197.06C636.985 187.216 645.465 179.377 645.465 179.377C645.465 179.377 599.335 177.459 614.252 163.298C629.17 149.137 655.815 150.992 669.94 157.142C702.77 171.444 691.596 186.021 699.088 191.388C741.564 221.847 690.17 231.739 690.17 231.739Z" fill="#24272D"/>
<path d="M659.081 198.307C663.853 196.43 665.368 192.407 662.466 189.32C659.569 186.234 653.353 185.253 648.581 187.13L640.73 190.219C635.963 192.096 634.447 196.119 637.345 199.205C640.247 202.292 646.463 203.272 651.23 201.396L659.081 198.307Z" fill="#3361C2"/>
<path d="M656.936 191.778L645.798 196.156" stroke="white" stroke-width="3" stroke-linecap="square"/>
<path d="M623.331 194.646C623.446 195.647 622.946 196.639 621.935 197.401C620.921 198.163 619.485 198.634 617.935 198.71C616.388 198.786 614.855 198.461 613.681 197.806C612.503 197.152 611.772 196.221 611.657 195.219C611.409 193.132 614.674 193.152 617.895 192.991C621.116 192.831 623.083 192.558 623.331 194.646Z" fill="white"/>
<path d="M368.836 126.442L365.185 128.332C361.405 130.198 357.436 131.898 353.303 133.418C341.062 137.908 327.554 140.762 313.578 141.811C299.602 142.86 285.443 142.082 271.94 139.525C258.437 136.967 245.865 132.682 234.968 126.922C224.071 121.162 215.072 114.045 208.504 105.993C225.189 98.0568 253.124 88.5748 288.856 90.5102C348.624 93.7645 368.836 126.442 368.836 126.442Z" fill="#3361C2"/>
<path d="M297.624 106.633C296.951 106.634 296.28 106.608 295.612 106.555C291.179 106.213 287.137 104.746 284.375 102.476C281.613 100.206 280.358 97.319 280.885 94.4498L288.86 51.0369C289.389 48.1673 291.657 45.5512 295.167 43.7641C296.904 42.8793 298.894 42.2247 301.023 41.8373C303.152 41.4502 305.377 41.3381 307.573 41.5076C309.768 41.677 311.891 42.1246 313.819 42.8251C315.747 43.5253 317.443 44.4646 318.81 45.5888C320.178 46.7133 321.19 48.0013 321.788 49.3787C322.386 50.7562 322.559 52.1967 322.298 53.6174L314.323 97.0303C313.834 99.6753 311.865 102.112 308.788 103.882C305.711 105.651 301.74 106.63 297.624 106.633Z" fill="#EF6E45"/>
<path d="M311.718 84.4545L315.289 84.7125C319.441 85.0156 323.646 84.7225 327.604 83.8543C331.561 82.9861 335.175 81.5643 338.187 79.6894C341.199 77.8148 343.535 75.5336 345.03 73.0079C346.524 70.4824 347.14 67.7749 346.834 65.0776L345.319 51.7163C344.829 47.4011 342.006 43.3353 337.344 40.2333C332.683 37.1312 326.482 35.1909 319.83 34.7537C312.326 34.2611 304.827 35.7177 298.983 38.8031C293.138 41.8885 289.427 46.35 288.666 51.2059L286.61 64.3064C285.853 69.1276 288.065 73.9472 292.766 77.7193C297.467 81.4915 304.277 83.9114 311.718 84.4545Z" fill="#EF6E45"/>
<path d="M295.176 70.2527L295.18 70.251C300.098 68.293 301.633 64.1252 298.607 60.942L295.498 57.6722C292.472 54.4892 286.032 53.4963 281.113 55.4543L281.109 55.4558C276.191 57.4141 274.657 61.5819 277.683 64.7648L280.791 68.0349C283.817 71.2179 290.257 72.2108 295.176 70.2527Z" fill="#EF6E45"/>
<path d="M282.291 60.7424L290.673 66.4769" stroke="white" stroke-width="3" stroke-linecap="square"/>
<path d="M332.134 53.4136L332.723 64.1514L326.821 64.3062" stroke="white" stroke-width="3" stroke-linecap="square"/>
<path d="M314.554 67.6411C314.066 68.2246 313.761 68.8648 313.655 69.5249C313.549 70.1849 313.645 70.8518 313.938 71.4878C314.231 72.1238 314.714 72.7161 315.361 73.2311C316.007 73.7463 316.804 74.1738 317.706 74.4895C318.608 74.8052 319.597 75.003 320.617 75.0713C321.637 75.1395 322.667 75.0773 323.65 74.8878C324.633 74.6985 325.548 74.3854 326.344 73.9671C327.14 73.5488 327.801 73.0332 328.288 72.4495C330.34 69.9922 326.348 68.8712 322.529 67.5436C318.709 66.2161 316.605 65.1867 314.554 67.6411Z" fill="white"/>
<path d="M297.372 65.7001L305.347 46.3147L307.239 41.7271C309.016 42.96 311.097 43.9939 313.397 44.7864C321.744 47.6938 346.91 46.5354 350.396 35.1152C353.241 25.8024 337.96 31.1555 330.136 30.5735C317.841 29.656 309.312 24.9738 292.476 30.8602C272.339 37.9108 281.878 55.1945 281.878 55.1945C281.878 55.1945 290.739 52.9494 297.372 65.7001Z" fill="#24272D"/>
<path d="M316.179 84.77L305.515 84.1421L315.253 90.2923L316.179 84.77Z" fill="#24272D"/>
<path d="M320.769 59.2141C322.386 59.2141 323.698 58.3657 323.698 57.3188C323.698 56.272 322.386 55.4236 320.769 55.4236C319.151 55.4236 317.84 56.272 317.84 57.3188C317.84 58.3657 319.151 59.2141 320.769 59.2141Z" fill="white"/>
<path d="M338.239 59.2141C339.857 59.2141 341.168 58.3657 341.168 57.3188C341.168 56.272 339.857 55.4236 338.239 55.4236C336.621 55.4236 335.31 56.272 335.31 57.3188C335.31 58.3657 336.621 59.2141 338.239 59.2141Z" fill="white"/>
<path d="M257.855 247.17C253.088 251.627 247.518 255.7 241.263 259.305C239.272 260.451 237.218 261.547 235.1 262.59C231.32 264.457 227.35 266.156 223.217 267.677C217.055 269.946 210.554 271.804 203.812 273.222L162.138 276.261L161.389 276.218C145.184 275.219 129.558 271.796 115.746 266.22C101.934 260.644 90.3126 253.067 81.7988 244.088C97.5494 225.397 125.688 206.149 175.647 201.501C223.275 197.071 249.451 232.983 257.855 247.17Z" fill="#24272D"/>
<path d="M182.017 217.58L181.486 217.603C176.414 217.754 171.457 216.594 167.706 214.38C163.955 212.166 161.716 209.078 161.482 205.796L158.381 162.26C158.264 160.635 158.643 159.01 159.497 157.48C160.351 155.95 161.662 154.543 163.355 153.34C166.776 150.912 171.547 149.462 176.619 149.31C181.691 149.158 186.649 150.316 190.401 152.53C194.154 154.743 196.394 157.83 196.629 161.113L199.731 204.646C199.963 207.871 198.243 211.026 194.934 213.442C191.626 215.858 186.992 217.343 182.017 217.58Z" fill="#3361C2"/>
<path d="M193.347 194.815L196.816 194.241C200.846 193.562 204.596 192.317 207.799 190.594C211.002 188.871 213.579 186.712 215.347 184.272C217.115 181.831 218.031 179.169 218.028 176.473C218.027 173.778 217.107 171.116 215.335 168.677L206.55 156.591C203.711 152.69 198.84 149.56 192.791 147.752C186.742 145.943 179.902 145.57 173.471 146.699C166.215 147.974 160.039 151.062 156.3 155.283C152.562 159.504 151.566 164.514 153.534 169.21L158.85 181.878C160.812 186.538 165.534 190.51 171.992 192.932C178.45 195.354 186.123 196.031 193.347 194.815Z" fill="#3361C2"/>
<path d="M155.508 186.664C160.082 188.927 166.625 188.363 170.122 185.403C173.62 182.444 172.748 178.21 168.175 175.946L163.48 173.622C158.907 171.359 152.364 171.923 148.866 174.882C145.368 177.842 146.24 182.076 150.813 184.34L155.508 186.664Z" fill="#3361C2"/>
<path d="M220.626 181.253C223.328 188.521 221.512 199.181 207.91 201.409C194.308 203.637 177.423 196.598 174.588 189.344C171.752 182.09 174.858 178.038 188.469 175.808C202.079 173.577 217.094 171.771 220.626 181.253Z" fill="#24272D"/>
<path d="M152.873 179.546L161.81 182.958" stroke="white" stroke-width="3" stroke-linecap="square"/>
<path d="M186.861 182.374C186.637 183.685 187.218 185 188.477 186.037C189.736 187.074 191.574 187.751 193.595 187.921C195.616 188.091 197.659 187.741 199.287 186.947C200.914 186.153 201.994 184.977 202.297 183.672C202.851 180.914 198.513 180.805 194.251 180.432C189.989 180.06 187.415 179.615 186.861 182.374Z" fill="white"/>
<path d="M198.748 193.785L188.102 194.296L199.231 199.313L198.748 193.785Z" fill="#24272D"/>
<path d="M185.549 171.461C187.159 171.461 188.464 170.616 188.464 169.574C188.464 168.532 187.159 167.688 185.549 167.688C183.939 167.688 182.634 168.532 182.634 169.574C182.634 170.616 183.939 171.461 185.549 171.461Z" fill="white"/>
<path d="M205.943 167.734C207.553 167.734 208.858 166.889 208.858 165.847C208.858 164.805 207.553 163.96 205.943 163.96C204.333 163.96 203.027 164.805 203.027 165.847C203.027 166.889 204.333 167.734 205.943 167.734Z" fill="white"/>
<path d="M153.76 274.793L165.421 279.854C165.421 279.854 164.903 297.855 177.136 296.894C177.136 296.894 177.184 299.738 179.67 300.011C182.155 300.283 188.93 293.568 188.93 293.568C188.93 293.568 198.234 291.297 200.073 285.483C201.911 279.668 202.248 265.934 199.377 264.899C196.506 263.864 168.181 263.411 168.181 263.411C168.181 263.411 156.423 264.334 153.76 274.793Z" fill="#3361C2"/>
<path d="M173.432 261.111L126.41 249.877" stroke="white" stroke-width="3" stroke-linecap="square"/>
<path d="M135.745 251.557L162.129 230.776" stroke="white" stroke-width="3" stroke-linecap="square"/>
<path d="M153.689 275.573C153.689 275.573 152.462 264.646 174.287 261.28" stroke="white" stroke-width="3" stroke-linecap="square"/>
<path d="M197.663 162.951L204.131 172.806L198.726 174.314" stroke="white" stroke-width="3" stroke-linecap="square"/>
</svg>
