<svg width="336" height="164" viewBox="0 0 336 164" fill="none" xmlns="http://www.w3.org/2000/svg">
<path d="M27.2169 24.8306H45.6552V36.4611H61.8717V49.2846" stroke="#F2F6F9" stroke-width="33" stroke-linecap="round" stroke-linejoin="round"/>
<path d="M144.336 59.5425L127.494 46.5843L141.302 35.9594L126.489 24.5623" stroke="#F2F6F9" stroke-width="33" stroke-linecap="round" stroke-linejoin="round"/>
<path d="M104.008 51.0955L74.7588 73.6036" stroke="#F2F6F9" stroke-width="33" stroke-linecap="round" stroke-linejoin="round"/>
<path d="M81.7254 19.8722L97.146 31.7401" stroke="#EDF1F4" stroke-width="33" stroke-linecap="round" stroke-linejoin="round"/>
<path d="M192.8 133.514L208.222 145.382" stroke="#F2F6F9" stroke-width="33" stroke-linecap="round" stroke-linejoin="round"/>
<path d="M231.791 17L247.214 28.8679" stroke="#EDF1F4" stroke-width="33" stroke-linecap="round" stroke-linejoin="round"/>
<path d="M291.797 44.3136L314.323 61.6482" stroke="#F2F6F9" stroke-width="33" stroke-linecap="round" stroke-linejoin="round"/>
<path d="M17 51.0955L31.2547 62.0649" stroke="#F2F6F9" stroke-width="33" stroke-linecap="round" stroke-linejoin="round"/>
<path d="M29.4387 83.6551L61.0705 107.997" stroke="#EDF1F4" stroke-width="33" stroke-linecap="round" stroke-linejoin="round"/>
<path d="M114.839 76.7774C117.838 76.7774 120.27 74.9063 120.27 72.5983C120.27 70.2902 117.838 68.4191 114.839 68.4191C111.84 68.4191 109.408 70.2902 109.408 72.5983C109.408 74.9063 111.84 76.7774 114.839 76.7774Z" fill="#F2F6F9"/>
<path d="M219.909 126.029V111.842H235.024V99.363H251.688" stroke="#F2F6F9" stroke-width="33" stroke-linecap="round" stroke-linejoin="round"/>
<path d="M265.921 41.4609L249.08 54.4205L235.275 43.7956L220.464 55.1941" stroke="#F2F6F9" stroke-width="33" stroke-linecap="round" stroke-linejoin="round"/>
<path d="M86.3352 127.8L69.4941 140.76L55.6888 130.135L40.8782 141.533" stroke="#F2F6F9" stroke-width="33" stroke-linecap="round" stroke-linejoin="round"/>
<path d="M254.222 75.5495L283.471 98.0576" stroke="#F2F6F9" stroke-width="33" stroke-linecap="round" stroke-linejoin="round"/>
<path d="M162.812 38.0305L192.061 60.5386" stroke="#EDF1F4" stroke-width="33" stroke-linecap="round" stroke-linejoin="round"/>
<path d="M252.598 133.894L266.852 122.924" stroke="#EDF1F4" stroke-width="33" stroke-linecap="round" stroke-linejoin="round"/>
<path d="M134.755 89.1397L149.01 78.1704" stroke="#F2F6F9" stroke-width="33" stroke-linecap="round" stroke-linejoin="round"/>
<path d="M287.368 121.296L319 96.9548" stroke="#F2F6F9" stroke-width="33" stroke-linecap="round" stroke-linejoin="round"/>
<path d="M282.165 69.3105C285.164 69.3105 287.595 67.4394 287.595 65.1313C287.595 62.8233 285.164 60.9522 282.165 60.9522C279.165 60.9522 276.734 62.8233 276.734 65.1313C276.734 67.4394 279.165 69.3105 282.165 69.3105Z" fill="#F2F6F9"/>
<path d="M289.687 27.1125C292.687 27.1125 295.118 25.2414 295.118 22.9333C295.118 20.6253 292.687 18.7542 289.687 18.7542C286.687 18.7542 284.256 20.6253 284.256 22.9333C284.256 25.2414 286.687 27.1125 289.687 27.1125Z" fill="#F2F6F9"/>
<path d="M113.199 145.713C116.198 145.713 118.629 143.842 118.629 141.533C118.629 139.225 116.198 137.354 113.199 137.354C110.199 137.354 107.768 139.225 107.768 141.533C107.768 143.842 110.199 145.713 113.199 145.713Z" fill="#F2F6F9"/>
<path d="M296.411 143.628C299.41 143.628 301.841 141.757 301.841 139.449C301.841 137.141 299.41 135.27 296.411 135.27C293.411 135.27 290.98 137.141 290.98 139.449C290.98 141.757 293.411 143.628 296.411 143.628Z" fill="#F2F6F9"/>
<path d="M204.638 37.9305C207.637 37.9305 210.068 36.0594 210.068 33.7514C210.068 31.4434 207.637 29.5723 204.638 29.5723C201.638 29.5723 199.207 31.4434 199.207 33.7514C199.207 36.0594 201.638 37.9305 204.638 37.9305Z" fill="#F2F6F9"/>
<path d="M27.219 119.639C30.2183 119.639 32.6498 117.768 32.6498 115.46C32.6498 113.152 30.2183 111.281 27.219 111.281C24.2197 111.281 21.7882 113.152 21.7882 115.46C21.7882 117.768 24.2197 119.639 27.219 119.639Z" fill="#F2F6F9"/>
<path d="M220.505 86.0297L235.928 74.1618" stroke="#F2F6F9" stroke-width="33" stroke-linecap="round" stroke-linejoin="round"/>
<path d="M193.668 34.4692L192.74 37.6053L192.529 37.5469C192.377 37.5039 192.231 37.4581 192.09 37.4081L191.98 37.3706C191.82 37.315 191.668 37.2567 191.52 37.197C191.45 37.1692 191.381 37.1386 191.311 37.1095C191.172 37.047 191.036 36.9858 190.908 36.9206C190.867 36.8997 190.823 36.8789 190.784 36.8567C190.656 36.7914 190.531 36.7178 190.41 36.6553L190.23 36.5497C190.13 36.4928 190.035 36.4331 189.941 36.3733C189.881 36.3358 189.822 36.2983 189.76 36.2608L189.565 36.1317L189.385 36.0095L189.205 35.8872L188.844 35.6511C188.768 35.5997 188.688 35.547 188.607 35.4956L189.535 32.3595C190.684 33.0984 191.591 33.8761 193.442 34.4081C193.527 34.4317 193.598 34.4511 193.668 34.4692Z" fill="white"/>
<path d="M184.828 30.6163L183.9 33.751C181.734 33.3177 179.318 32.9955 179.318 32.9955L180.245 29.8608C180.245 29.8608 182.658 30.1816 184.828 30.6163Z" fill="white"/>
<path d="M192.742 37.6069C193.054 37.693 193.36 37.7708 193.659 37.8402C193.359 37.7721 193.052 37.6944 192.742 37.6069Z" fill="white"/>
<path d="M197.059 38.4023C196.981 38.4023 196.897 38.387 196.806 38.3773L197.059 38.4023Z" fill="white"/>
<path d="M192.74 37.6053L191.714 41.0775L191.503 41.0191C189.653 40.4858 188.745 39.7094 187.598 38.9692L188.623 35.5039C188.704 35.5553 188.783 35.6081 188.859 35.6595L189.22 35.8956L189.401 36.0178L189.581 36.14L189.776 36.2692C189.832 36.3067 189.891 36.3442 189.956 36.3817C190.05 36.4414 190.137 36.5011 190.245 36.5581L190.426 36.6636C190.547 36.7317 190.671 36.8025 190.799 36.865C190.839 36.8872 190.882 36.9081 190.924 36.9289C191.052 36.9942 191.187 37.0553 191.326 37.1178C191.397 37.1469 191.465 37.1775 191.536 37.2053C191.684 37.265 191.835 37.3233 191.996 37.3789L192.106 37.4164C192.247 37.4636 192.393 37.5094 192.545 37.5553L192.74 37.6053Z" fill="#24272D"/>
<path d="M183.9 33.7513L182.875 37.2166C180.709 36.7819 178.291 36.461 178.291 36.461L179.317 32.9958C179.317 32.9958 181.729 33.3125 183.9 33.7513Z" fill="#24272D"/>
<path d="M193.659 37.8402C193.359 37.7721 193.052 37.6944 192.742 37.6069C193.054 37.693 193.36 37.7708 193.659 37.8402Z" fill="white"/>
<path d="M197.059 38.4023C196.981 38.4023 196.897 38.387 196.806 38.3773L197.059 38.4023Z" fill="white"/>
<path d="M191.709 41.0719L190.844 43.9885C188.874 43.433 187.717 42.833 186.612 42.2663L187.592 38.9594C188.74 39.6997 189.648 40.4761 191.498 41.0094L191.709 41.0719Z" fill="white"/>
<path d="M182.874 37.2166L181.889 40.5416C179.191 39.9277 177.285 39.861 177.285 39.861L178.29 36.4611C178.29 36.4611 180.7 36.7847 182.874 37.2166Z" fill="white"/>
<path d="M187.598 38.9635L186.618 42.2704C185.587 41.744 184.604 41.2427 183.05 40.8274C182.649 40.7204 182.263 40.626 181.889 40.5413L182.875 37.2163C183.277 37.2983 183.672 37.3816 184.044 37.4691C185.353 37.767 186.565 38.2764 187.598 38.9635Z" fill="#24272D"/>
<path d="M188.623 35.4982L187.598 38.9635C186.565 38.2764 185.353 37.767 184.044 37.4691C183.672 37.3816 183.277 37.2982 182.875 37.2163L183.9 33.751C184.102 33.7913 184.302 33.833 184.497 33.8746C184.692 33.9163 184.883 33.9594 185.069 34.0038C185.174 34.0274 185.275 34.0538 185.374 34.0802C185.474 34.1066 185.571 34.1316 185.665 34.158C185.759 34.1844 185.845 34.2121 185.941 34.2399L186.075 34.283C186.163 34.3108 186.255 34.3385 186.333 34.3677L186.457 34.4121C186.54 34.4413 186.621 34.4719 186.703 34.5038C186.784 34.5358 186.847 34.5594 186.917 34.5899C186.986 34.6177 187.051 34.6455 187.116 34.676C187.415 34.808 187.705 34.9531 187.982 35.1107L188.105 35.1816C188.288 35.2871 188.461 35.3927 188.623 35.4982Z" fill="white"/>
<path d="M189.544 32.3623L188.616 35.4983C188.453 35.3928 188.284 35.2886 188.107 35.1858L187.984 35.115C187.706 34.9574 187.417 34.8122 187.118 34.6803C187.053 34.6497 186.988 34.622 186.919 34.5942C186.849 34.5636 186.777 34.5358 186.705 34.5081C186.632 34.4803 186.542 34.4456 186.459 34.4164L186.335 34.372C186.252 34.3428 186.165 34.3136 186.076 34.2872L185.943 34.2442C185.853 34.2164 185.762 34.1886 185.667 34.1622C185.571 34.1358 185.475 34.1095 185.376 34.0845C185.277 34.0595 185.176 34.0317 185.071 34.0081C184.891 33.9636 184.692 33.922 184.499 33.8789C184.306 33.8359 184.104 33.7956 183.902 33.7553L184.829 30.6206C185.234 30.7012 185.629 30.7845 185.999 30.8734C187.305 31.1688 188.514 31.6766 189.544 32.3623Z" fill="#24272D"/>
<path d="M196.702 41.9235L195.823 44.8957C195.823 44.8957 193.944 44.8262 191.166 44.079L190.85 43.9915L191.715 41.0749C193.325 41.5143 195 41.7993 196.702 41.9235Z" fill="#24272D"/>
<path d="M197.728 38.4596L196.701 41.9235C194.999 41.7979 193.325 41.5115 191.715 41.0707L192.74 37.5985C193.05 37.686 193.357 37.7638 193.657 37.8318L193.956 37.8999L194.249 37.9624C195.084 38.1355 195.933 38.2704 196.788 38.3666H196.804C196.895 38.3763 196.985 38.386 197.057 38.3916H197.073L197.223 38.4054C197.546 38.4513 197.728 38.4596 197.728 38.4596Z" fill="white"/>
<path d="M198.656 35.3219L197.728 38.4594C197.728 38.4594 197.548 38.4496 197.225 38.4191L197.075 38.4052H197.059L196.806 38.3802H196.79C195.934 38.2841 195.086 38.1491 194.251 37.976L193.958 37.9135L193.659 37.8455C193.359 37.776 193.053 37.6983 192.742 37.6122L193.669 34.4761C195.279 34.9151 196.954 35.1993 198.656 35.3219Z" fill="#24272D"/>
<path d="M192.742 37.6069C193.054 37.693 193.36 37.7708 193.659 37.8402C193.359 37.7721 193.052 37.6944 192.742 37.6069Z" fill="white"/>
<path d="M196.806 38.3773L197.059 38.4023C196.981 38.3968 196.897 38.387 196.806 38.3773Z" fill="white"/>
<path d="M173.331 51.0957L179.659 29.7195" stroke="#1C2028" stroke-width="7"/>
<path d="M80.1589 71.7219L73.7445 88.0703L72.9666 90.1384L82.1876 90.5592L84.3137 82.9843L80.1589 71.7219Z" fill="#3361C2"/>
<path d="M171.044 123.631L167.376 126.784C164.4 129.34 160.283 130.94 155.843 131.266C151.402 131.591 146.966 130.618 143.417 128.539L79.9639 91.384L89.479 81.1396L171.044 123.631Z" fill="#EA6F57"/>
<path d="M169.732 59.701C169.732 59.701 167.066 47.1372 169.732 46.1969C172.397 45.2567 176.285 47.2219 176.285 47.2219C176.285 47.2219 180.061 48.0775 180.283 49.1025C180.505 50.1275 178.951 54.9996 178.063 55.3427C177.175 55.6857 177.171 58.4191 177.171 58.4191" fill="#EA6F57"/>
<path d="M158.375 163.45C200.23 163.45 234.161 163.018 234.161 162.485C234.161 161.951 200.23 161.519 158.375 161.519C116.52 161.519 82.5898 161.951 82.5898 162.485C82.5898 163.018 116.52 163.45 158.375 163.45Z" fill="#E4EFF7"/>
<path d="M94.4572 90.9452L104.321 105.489L111.744 101.066L107.809 94.9549L94.4572 90.9452Z" fill="#3361C2"/>
<path d="M174.607 47.3929L173.163 52.4928C173.163 52.4928 176.681 52.1234 177.643 49.8151" stroke="white" stroke-width="3" stroke-linecap="square"/>
<path d="M170.398 48.0774C170.398 48.0774 173.424 47.908 174.188 48.2385" stroke="white" stroke-width="3" stroke-linecap="square"/>
<path d="M169.898 50.3205C169.898 50.3205 172.786 49.9788 173.602 50.3205" stroke="white" stroke-width="3" stroke-linecap="square"/>
<path d="M170.037 53.5038C170.037 53.5038 175.758 52.8205 176.063 54.3802" stroke="white" stroke-width="3" stroke-linecap="square"/>
<path d="M109.112 89.7771L106.049 90.1396L109.825 103.619L131.667 101.527" stroke="white" stroke-width="3" stroke-linecap="square"/>
<path d="M141.221 106.506L142.737 123.107C142.737 123.107 143.551 127.867 147.238 130.007" stroke="white" stroke-width="3" stroke-linecap="square"/>
<path d="M185.614 140.982L184.862 142.291C184.546 142.82 184.299 143.372 184.123 143.939C183.779 144.986 184.293 145.606 183.447 147.257C182.486 149.128 185.215 148.296 185.894 147.475C186.423 146.834 186.212 145.984 186.977 145.586C187.304 145.891 188.004 146.321 188.782 148.982C188.923 149.46 188.211 152.732 191.013 153.186C193.317 153.25 195.014 150.343 195.247 149.409C195.554 148.211 195.492 146.974 195.066 145.797C194.639 144.499 194.662 144.059 193.577 142.475C193.053 141.753 192.449 141.066 191.772 140.423" fill="#EA6F57"/>
<path d="M160.533 138.071L89.0197 96.5563C86.7876 95.2605 83.6131 95.6025 81.9293 97.3202L81.9281 97.3213C80.2443 99.0389 80.6887 101.482 82.9209 102.778L154.434 144.292C156.666 145.588 159.841 145.246 161.525 143.528L161.526 143.527C163.21 141.809 162.765 139.366 160.533 138.071Z" fill="#72A065"/>
<path d="M237.517 64.3605L153.732 138.608C151.899 140.232 152.124 142.693 154.235 144.104L154.237 144.104C156.348 145.515 159.545 145.342 161.378 143.717L245.162 69.47C246.996 67.8455 246.77 65.3849 244.66 63.9743L244.658 63.9733C242.547 62.5626 239.348 62.7359 237.517 64.3605Z" fill="#72A065"/>
<path d="M177.967 55.819L164.86 58.1273C164.86 58.1273 165.86 75.2105 167.36 78.8049C168.377 81.243 172.895 89.2237 175.696 94.1063C175.313 94.2631 174.959 94.4355 174.635 94.6228C173.423 95.3235 172.531 96.5541 171.323 98.2199C169.25 101.081 166.245 105.227 159.085 110.178C154.103 113.623 166.028 130.092 166.028 130.092L185.369 113.7C185.546 116.603 185.572 119.633 185.206 121.916C184.226 128.036 181.416 141.203 181.416 141.203H195.62C195.62 141.203 199.049 125.253 199.41 120.71C199.771 116.167 198.055 98.6395 198.055 98.6395L196.476 99.2911C196.31 97.4461 195.409 95.6674 192.934 94.7314L193.155 94.6826L180.716 75.5633L177.967 55.819Z" fill="#3361C2"/>
<mask id="mask0" mask-type="alpha" maskUnits="userSpaceOnUse" x="157" y="55" width="43" height="87">
<path fill-rule="evenodd" clip-rule="evenodd" d="M177.967 55.819L164.86 58.1273C164.86 58.1273 165.86 75.2105 167.36 78.8049C168.377 81.243 172.895 89.2237 175.696 94.1063C175.313 94.2631 174.959 94.4355 174.635 94.6228C173.423 95.3235 172.531 96.5541 171.323 98.2199C169.25 101.081 166.245 105.227 159.085 110.178C154.103 113.623 166.028 130.092 166.028 130.092L185.369 113.7C185.546 116.603 185.572 119.633 185.206 121.916C184.226 128.036 181.416 141.203 181.416 141.203H195.62C195.62 141.203 199.049 125.253 199.41 120.71C199.771 116.167 198.055 98.6395 198.055 98.6395L196.476 99.2911C196.31 97.4461 195.409 95.6674 192.934 94.7314L193.155 94.6826L180.716 75.5633L177.967 55.819Z" fill="white"/>
</mask>
<g mask="url(#mask0)">
<path d="M159.515 63.4622H168.548V69.5302H175.41V75.6385" stroke="#FFC774" stroke-width="18" stroke-linecap="round" stroke-linejoin="round"/>
<path d="M174.427 60.9832H182.875" stroke="#FFC774" stroke-width="18" stroke-linecap="round" stroke-linejoin="round"/>
<path d="M163.401 79.1027L177.172 86.2401" stroke="#FFC774" stroke-width="18" stroke-linecap="round" stroke-linejoin="round"/>
<path d="M180.08 81.5816L190.369 73.6636" stroke="#FFC774" stroke-width="18" stroke-linecap="round" stroke-linejoin="round"/>
<path d="M184.745 89.7773L182.875 91.9134" stroke="#FFC774" stroke-width="18" stroke-linecap="round" stroke-linejoin="round"/>
<path d="M163.695 115.652L168.713 117.397" stroke="#FFC774" stroke-width="18" stroke-linecap="round" stroke-linejoin="round"/>
<path d="M171.75 94.0358L179.318 97.2233L176.495 103.205L183.81 105.086" stroke="#FFC774" stroke-width="18" stroke-linecap="round" stroke-linejoin="round"/>
<path d="M171.75 111.411L165.735 100.043" stroke="#FFC774" stroke-width="18" stroke-linecap="round" stroke-linejoin="round"/>
<path d="M178.291 110.556L176.495 122.779" stroke="#FFC774" stroke-width="18" stroke-linecap="round" stroke-linejoin="round"/>
<path d="M189.502 118.255L203.907 125.855" stroke="#FFC774" stroke-width="18" stroke-linecap="round" stroke-linejoin="round"/>
<path d="M185.624 124.707L183.047 128.463L189.369 131.209L184.924 135.627L189.826 138.989" stroke="#FFC774" stroke-width="18" stroke-linecap="round" stroke-linejoin="round"/>
<path d="M195.605 131.154L200.642 136.112" stroke="#FFC774" stroke-width="18" stroke-linecap="round" stroke-linejoin="round"/>
</g>
<path d="M207.921 85.6028C212.523 83.425 214.458 79.4116 212.241 76.6386C210.025 73.8656 204.499 73.3831 199.896 75.561C195.294 77.7387 193.36 81.7521 195.576 84.5252C197.792 87.2982 203.318 87.7807 207.921 85.6028Z" fill="#24272D"/>
<path d="M186.874 99.0744C186.278 98.3275 186.014 97.4514 186.124 96.5789C186.233 95.7062 186.709 94.885 187.48 94.2397L199.549 84.1343C200.492 83.3559 201.795 82.8961 203.177 82.8548C204.558 82.8136 205.904 83.1944 206.922 83.9143C207.938 84.634 208.545 85.6344 208.608 86.6969C208.671 87.7594 208.184 88.7978 207.256 89.5856L195.187 99.6911C194.64 100.15 193.961 100.504 193.205 100.727C192.449 100.95 191.637 101.035 190.831 100.975C190.025 100.915 189.249 100.712 188.562 100.383C187.876 100.053 187.298 99.6051 186.874 99.0744Z" fill="#EA6F57"/>
<path d="M190.857 92.8673L190.163 92.3701C189.355 91.7916 188.723 91.0833 188.312 90.2957C187.9 89.5079 187.72 88.6601 187.782 87.8125C187.845 86.965 188.15 86.1383 188.675 85.3917C189.2 84.645 189.932 83.9966 190.82 83.4924L195.218 80.9924C196.638 80.186 198.382 79.7903 200.143 79.8749C201.905 79.9595 203.571 80.519 204.85 81.4549C206.293 82.5112 207.13 83.9652 207.181 85.497C207.229 87.0286 206.486 88.5128 205.114 89.6229L201.412 92.6173C200.05 93.7197 198.178 94.3641 196.202 94.4109C194.226 94.4577 192.305 93.903 190.857 92.8673Z" fill="#EA6F57"/>
<path d="M196.608 83.6551L191.845 84.7412L192.805 85.9953" stroke="#25282D" stroke-width="3"/>
<path d="M196.998 86.2399C197.505 86.2399 197.916 85.9233 197.916 85.5329C197.916 85.1425 197.505 84.826 196.998 84.826C196.49 84.826 196.079 85.1425 196.079 85.5329C196.079 85.9233 196.49 86.2399 196.998 86.2399Z" fill="#24272D"/>
<path d="M194.685 83.3454C195.193 83.3454 195.604 83.0289 195.604 82.6385C195.604 82.248 195.193 81.9315 194.685 81.9315C194.178 81.9315 193.767 82.248 193.767 82.6385C193.767 83.0289 194.178 83.3454 194.685 83.3454Z" fill="#24272D"/>
<path d="M192.276 88.0034C192.276 88.0034 192.92 88.7173 194 88.627" stroke="#25282D" stroke-width="3"/>
<path d="M215.187 115.495C205.59 120.95 203.621 112.803 203.621 112.803C203.621 112.803 195.871 122.275 189.267 112.412C182.663 102.548 189.307 95.8562 194.575 93.8659C196.673 93.0743 198.844 93.1409 201.044 93.3368C197.947 87.6827 202.614 85.5813 202.614 85.5813C202.614 85.5813 191.814 79.28 200.115 75.4425C208.415 71.605 216.279 76.8883 219.277 80.7897C219.905 81.6112 220.367 82.5008 220.65 83.4285C221.585 86.4118 221.412 89.1465 223.98 92.4771C231.075 101.677 220.592 107.844 220.592 107.844C220.592 107.844 221.682 111.802 215.187 115.495Z" fill="#24272D"/>
<path d="M204.332 93.1708C206.179 92.9526 207.446 91.6243 207.162 90.2039C206.879 88.7835 205.153 87.8088 203.307 88.027L200.268 88.386C198.421 88.6042 197.154 89.9325 197.438 91.3529C197.721 92.7733 199.448 93.748 201.295 93.5299L204.332 93.1708Z" fill="#EA6F57"/>
<path d="M204.951 90.5575L200.641 91.0644" stroke="#25282D" stroke-width="3"/>
<path d="M106.049 90.1396C106.208 91.1118 109.825 103.619 109.825 103.619L140.688 100.663L142.653 122.487C142.791 124.017 143.326 125.511 144.225 126.881C145.124 128.251 146.37 129.468 147.889 130.462C149.409 131.455 151.171 132.205 153.073 132.667C154.974 133.129 156.977 133.294 158.962 133.152C160.299 133.055 161.593 132.741 162.759 132.228C163.924 131.715 164.934 131.017 165.72 130.18C166.506 129.342 167.051 128.385 167.317 127.373C167.583 126.36 167.565 125.316 167.264 124.309L157.625 92.0868C156.992 89.9715 155.343 88.1188 153.009 86.9005C150.674 85.6821 147.827 85.1885 145.039 85.5188L106.049 90.1396Z" fill="#EA6F57"/>
</svg>
