<svg width="590" height="537" viewBox="0 0 590 537" fill="none" xmlns="http://www.w3.org/2000/svg">
<path d="M483.448 68.48H305.564V215.401H483.448V68.48Z" fill="#F2F6F9"/>
<path fill-rule="evenodd" clip-rule="evenodd" d="M315.655 82.176H473.362V201.71H315.655V82.176ZM470.295 197.677V86.2088H318.722V197.677H470.295Z" fill="#E2E6E8"/>
<path d="M266.486 358.37H185.089V469.939H266.486V358.37Z" fill="#F2F6F9"/>
<path d="M462.397 395.541H353.703V462.292H462.397V395.541Z" fill="#F2F6F9"/>
<path d="M138.932 59.6433H28.6658V220.638H138.932V59.6433Z" fill="#F2F6F9"/>
<path d="M280.11 8.4585H162.084V176.47H280.11V8.4585Z" fill="#F2F6F9"/>
<path d="M285.95 204.624H167.985V335.57H285.95V204.624Z" fill="#F2F6F9"/>
<path d="M590 163.636H508.902V272.857H590V163.636Z" fill="#F2F6F9"/>
<path d="M553.141 52.8181H511.145V137.192H553.141V52.8181Z" fill="#F2F6F9"/>
<path d="M455.15 0H333.862V52.7374H455.15V0Z" fill="#F2F6F9"/>
<path d="M553.137 313.39H508.902V435.611H553.137V313.39Z" fill="#F2F6F9"/>
<path d="M488.969 245.147H373.362V372.63H488.969V245.147Z" fill="#F2F6F9"/>
<path d="M133.017 248.807H0V358.506H133.017V248.807Z" fill="#F2F6F9"/>
<path fill-rule="evenodd" clip-rule="evenodd" d="M12.1075 262.785H120.913V344.532H12.1075V262.785ZM116.696 338.988V268.33H16.3248V338.988H116.696Z" fill="#E2E6E8"/>
<path fill-rule="evenodd" clip-rule="evenodd" d="M393.652 268.022H468.677V349.76H393.652V268.022ZM464.46 344.215V273.567H397.869V344.215H464.46Z" fill="#E2E6E8"/>
<path fill-rule="evenodd" clip-rule="evenodd" d="M185.682 225.356H268.252V314.837H185.682V225.356ZM264.035 309.292V230.901H189.9V309.292H264.035Z" fill="#E2E6E8"/>
<path fill-rule="evenodd" clip-rule="evenodd" d="M46.6848 86.0474H120.909V194.234H46.6848V86.0474ZM111.329 181.632V98.6495H111.325H56.2702V181.632H111.329Z" fill="#E2E6E8"/>
<path fill-rule="evenodd" clip-rule="evenodd" d="M175.711 27.0139H266.486V157.915H175.711V27.0139ZM263.419 153.882V31.0466H178.778V153.882H263.419Z" fill="#E2E6E8"/>
<path fill-rule="evenodd" clip-rule="evenodd" d="M201.662 380.338H249.912V447.981H201.662V380.338ZM243.777 439.916V388.403H207.796V439.916H243.777Z" fill="#E2E6E8"/>
<path fill-rule="evenodd" clip-rule="evenodd" d="M520 329.727H542.045V419.273H520V329.727ZM540.895 417.761V331.24H521.151V417.761H540.895Z" fill="#E2E6E8"/>
<path fill-rule="evenodd" clip-rule="evenodd" d="M347.622 15.6467H441.391V37.0855H347.622V15.6467ZM440.241 35.5732V17.1589H348.772V35.5732H440.241Z" fill="#E2E6E8"/>
<path fill-rule="evenodd" clip-rule="evenodd" d="M527.404 187.686H571.494V248.807H527.404V187.686ZM564.976 240.237V196.256H533.921V240.237H564.976Z" fill="#E2E6E8"/>
<path d="M167.042 384.118H89.6553V444.19H167.042V384.118Z" fill="#F2F6F9"/>
<path d="M266.485 536.7C389.361 536.7 488.969 535.132 488.969 533.197C488.969 531.261 389.361 529.693 266.485 529.693C143.611 529.693 44.0013 531.261 44.0013 533.197C44.0013 535.132 143.611 536.7 266.485 536.7Z" fill="#E4EFF7"/>
<path d="M312.618 404.821L284.938 533.041" stroke="#475056" stroke-width="5"/>
<path d="M336.005 404.821L308.324 533.041" stroke="#475056" stroke-width="5"/>
<path d="M369.666 404.821L397.347 533.041" stroke="#475056" stroke-width="5"/>
<path d="M393.053 404.821L420.734 533.041" stroke="#475056" stroke-width="5"/>
<path d="M324.883 180.564C333.869 180.564 341.154 168.331 341.154 153.242C341.154 138.153 333.869 125.921 324.883 125.921C315.897 125.921 308.612 138.153 308.612 153.242C308.612 168.331 315.897 180.564 324.883 180.564Z" fill="#24272D"/>
<path d="M202.766 299.382C202.766 290.812 210.779 283.916 220.663 283.916C230.547 283.916 238.556 290.837 238.556 299.382" fill="#72A065"/>
<path d="M200.086 277.303H248.278V283.916H202.881C202.367 283.915 201.859 283.781 201.384 283.521C200.91 283.261 200.479 282.88 200.117 282.402C199.754 281.923 199.467 281.355 199.272 280.73C199.076 280.104 198.977 279.435 198.978 278.76C198.981 278.374 199.099 278.006 199.306 277.734C199.513 277.462 199.793 277.307 200.086 277.303Z" fill="#EA6F57"/>
<path d="M244.682 291.987H220.261C218.708 291.987 217.45 293.641 217.45 295.682V295.687C217.45 297.727 218.708 299.382 220.261 299.382H244.682C246.234 299.382 247.493 297.727 247.493 295.687V295.682C247.493 293.641 246.234 291.987 244.682 291.987Z" fill="#EA6F57"/>
<path d="M222.837 278.593H258.461V293.277H229.443C227.691 293.277 226.01 292.362 224.772 290.733C223.533 289.104 222.837 286.895 222.837 284.591V278.593Z" fill="#EA6F57"/>
<path d="M402.933 251.554H381.383V299.326H421.34C432.504 299.326 438.013 281.471 429.997 271.259C415.002 252.149 396.048 229.299 386.812 223.431C370.219 212.886 343.006 212.054 331.052 215.779C319.098 219.504 292.36 257.114 292.36 257.114L242.34 266.445V300.218H288.273C294.033 300.219 299.709 298.402 304.824 294.92L325.704 280.725C325.704 280.725 337.343 304.417 340.33 321.622H395.626C395.626 321.622 392.118 287.49 391.136 268.022" fill="white"/>
<mask id="mask0" mask-type="alpha" maskUnits="userSpaceOnUse" x="242" y="213" width="192" height="109">
<path fill-rule="evenodd" clip-rule="evenodd" d="M402.933 251.554H381.383V299.326H421.34C432.504 299.326 438.013 281.471 429.997 271.258C415.002 252.149 396.048 229.298 386.812 223.431C370.219 212.885 343.006 212.054 331.052 215.779C319.098 219.504 292.36 257.114 292.36 257.114L242.34 266.444V300.218H288.273C294.033 300.219 299.709 298.401 304.824 294.92L325.704 280.725C325.704 280.725 337.343 304.417 340.33 321.622H395.626C395.626 321.622 392.118 287.49 391.136 268.022" fill="white"/>
</mask>
<g mask="url(#mask0)">
<path d="M275.852 270.729L262.13 243.71L248.405 270.729H275.852Z" fill="#FFC774"/>
<path d="M425.868 270.729L412.146 243.71L398.425 270.729H425.868Z" fill="#FFC774"/>
<path d="M324.787 270.729L311.066 243.71L297.344 270.729H324.787Z" fill="#FFC774"/>
<path d="M373.727 270.729L360.002 243.71L346.28 270.729H373.727Z" fill="#FFC774"/>
<path d="M350.21 233.422L336.484 206.408L322.763 233.422H350.21Z" fill="#FFC774"/>
<path d="M300.66 312.125L286.935 285.111L273.214 312.125H300.66Z" fill="#FFC774"/>
<path d="M350.21 312.125L336.484 285.111L322.763 312.125H350.21Z" fill="#FFC774"/>
<path d="M402.121 312.125L388.399 285.111L374.674 312.125H402.121Z" fill="#FFC774"/>
</g>
<path d="M381.383 299.326H421.34C432.504 299.326 438.013 281.471 429.997 271.259C415.002 252.149 396.048 229.299 386.812 223.431C370.219 212.886 343.006 212.054 331.052 215.779C319.098 219.504 292.36 257.114 292.36 257.114L242.34 266.445V300.218H288.273C294.033 300.219 299.709 298.402 304.824 294.92L325.704 280.725C325.704 280.725 337.343 304.417 340.33 321.622H395.626C395.626 321.622 395.082 318.885 393.502 299.392" stroke="#25282D" stroke-width="3"/>
<path d="M402.93 251.554H381.383" stroke="#25282D" stroke-width="3"/>
<path d="M407.097 382.102H298.452V405.834H407.097V382.102Z" fill="#EA6F57"/>
<path d="M306.829 533.197H353.971L359.913 533.111L355.366 508.013L334.038 510.276L306.829 533.197Z" fill="#72A065"/>
<path d="M199.128 497.709L239.694 529.295L244.839 533.197L254.807 497.341L233.338 494.236L199.128 497.709Z" fill="#72A065"/>
<path d="M349.436 228.946C347.016 228.944 344.662 227.905 342.733 225.985C340.803 224.066 339.402 221.371 338.743 218.309L328.414 170.386C327.998 168.532 327.865 166.588 328.025 164.666C328.184 162.744 328.631 160.882 329.341 159.19C330.051 157.497 331.009 156.005 332.16 154.803C333.311 153.6 334.632 152.709 336.047 152.182C337.461 151.655 338.942 151.502 340.402 151.733C341.861 151.963 343.272 152.571 344.552 153.523C345.831 154.475 346.955 155.751 347.857 157.278C348.759 158.804 349.422 160.551 349.808 162.416L360.136 210.34C360.534 212.187 360.652 214.119 360.481 216.026C360.312 217.933 359.858 219.777 359.146 221.454C358.434 223.13 357.478 224.605 356.332 225.796C355.186 226.986 353.873 227.868 352.468 228.391C351.481 228.757 350.461 228.943 349.436 228.946Z" fill="#EA6F57"/>
<path d="M339.275 207.668L337.335 208.374C335.077 209.195 332.708 209.352 330.398 208.833C328.088 208.314 325.893 207.132 323.97 205.371C322.047 203.61 320.442 201.313 319.271 198.644C318.099 195.975 317.39 193 317.192 189.929L316.207 174.721C315.89 169.809 316.899 164.907 319.058 160.877C321.217 156.846 324.387 153.945 328.011 152.683C332.101 151.259 336.453 152.03 340.111 154.825C343.768 157.621 346.431 162.212 347.514 167.588L350.432 182.091C351.507 187.427 350.938 193.105 348.85 197.893C346.761 202.681 343.321 206.194 339.275 207.668Z" fill="#EA6F57"/>
<path d="M324.013 176.47L321.264 189.864L325.286 189.965" stroke="#25282D" stroke-width="3"/>
<path d="M328.862 181.677C329.94 181.677 330.814 180.529 330.814 179.112C330.814 177.695 329.94 176.546 328.862 176.546C327.784 176.546 326.911 177.695 326.911 179.112C326.911 180.529 327.784 181.677 328.862 181.677Z" fill="#24272D"/>
<path d="M319.485 181.677C320.562 181.677 321.436 180.529 321.436 179.112C321.436 177.695 320.562 176.546 319.485 176.546C318.406 176.546 317.533 177.695 317.533 179.112C317.533 180.529 318.406 181.677 319.485 181.677Z" fill="#24272D"/>
<path d="M329.419 195.041C329.419 195.041 331.811 194.87 332.8 192.132" stroke="#25282D" stroke-width="3"/>
<path d="M419.553 192.813C421.704 226.022 400.345 215.224 400.345 215.224C400.345 215.224 413.994 251.675 383.45 248.63C352.905 245.585 344.57 217.054 345.754 200.742C346.226 194.239 348.799 189.203 351.705 184.344C334.966 180.957 335.219 165.864 335.219 165.864C335.219 165.864 308.382 179.57 308.6 152.531C308.819 125.492 329.986 116.822 342.496 117.109C345.131 117.181 347.743 117.776 350.244 118.873C358.295 122.321 364.537 127.947 375.226 128.159C404.747 128.774 407.592 165.436 407.592 165.436C407.592 165.436 418.1 170.341 419.553 192.813Z" fill="#24272D"/>
<path d="M355.005 176.16C356.546 171.353 354.833 165.813 351.177 163.787C347.522 161.761 343.309 164.015 341.768 168.823L339.231 176.733C337.69 181.54 339.404 187.08 343.059 189.106C346.714 191.133 350.927 188.878 352.469 184.07L355.005 176.16Z" fill="#EA6F57"/>
<path d="M349.527 169.746L345.923 180.967" stroke="#25282D" stroke-width="3"/>
<path opacity="0.68" d="M357.229 257.104L375.456 233.14C380.04 227.111 386.26 223.724 392.743 223.723H414.239L418.161 218.561C421.278 214.467 425.503 212.167 429.908 212.165H443.787C446.218 212.166 448.549 213.436 450.266 215.696C451.988 217.956 452.954 221.021 452.954 224.217C452.95 227.414 451.984 230.478 450.266 232.737C448.545 234.996 446.214 236.265 443.783 236.265H391.052C387.805 236.265 384.588 237.106 381.59 238.739C378.59 240.373 375.865 242.768 373.569 245.787L363.421 259.13" fill="#CBCFD3"/>
<path d="M385.707 254.14H401.986" stroke="white" stroke-width="3" stroke-linecap="square"/>
<path d="M386.808 321.612H297.543C290.846 321.612 284.296 324.195 278.705 329.042C273.113 333.888 268.726 340.785 266.086 348.878L221.302 486.251L260.439 510.447L305.207 382.102H384.331L386.808 321.612Z" fill="#274992"/>
<path d="M386.812 321.607V382.097H361.949V510.059H320.041V358.964C320.041 349.058 323.034 339.556 328.361 332.55C333.689 325.544 340.915 321.608 348.45 321.607H386.812Z" fill="#274992"/>
<path d="M320.041 382.102V358.964C320.041 349.058 323.034 339.556 328.361 332.55C333.689 325.544 340.915 321.608 348.45 321.607" stroke="white" stroke-width="3" stroke-linecap="square"/>
<path d="M388.315 314.837H407.101V389.698H371.12V337.445C371.12 331.449 372.931 325.698 376.156 321.458C379.38 317.218 383.756 314.837 388.315 314.837Z" fill="#EA6F57"/>
<path d="M377.097 252.174H350.152V300.203H377.097V252.174Z" fill="#72A065"/>
<path d="M382.993 255.718H376.737C373.717 255.718 371.269 258.936 371.269 262.906V286.84C371.269 290.81 373.717 294.028 376.737 294.028H382.993C386.015 294.028 388.461 290.81 388.461 286.84V262.906C388.461 258.936 386.015 255.718 382.993 255.718Z" fill="#72A065"/>
<path d="M377.097 261.535H380.003C380.565 261.534 381.123 261.68 381.643 261.962C382.163 262.245 382.636 262.659 383.034 263.182C383.434 263.705 383.748 264.326 383.963 265.009C384.182 265.693 384.293 266.426 384.293 267.166V282.565C384.293 284.06 383.84 285.494 383.037 286.55C382.234 287.607 381.143 288.201 380.006 288.201H377.1V261.535H377.097Z" fill="white"/>
<path d="M359.848 273.038L363.598 278.296L367.401 272.968" stroke="white" stroke-width="23" stroke-linecap="round"/>
<path d="M126.008 300.354L75.769 533.04" stroke="#475056" stroke-width="5"/>
<path d="M180.418 300.354L130.183 533.04" stroke="#475056" stroke-width="5"/>
<path d="M437.661 300.118L487.946 533.041" stroke="#475056" stroke-width="5"/>
<path d="M383.193 300.118L433.482 533.041" stroke="#475056" stroke-width="5"/>
<path d="M381.168 260.29C379.174 262.619 378.542 286.285 381.168 288.014C383.794 289.743 397.899 286.779 397.899 273.729C397.899 260.678 384.02 256.958 381.168 260.29Z" fill="#EA6F57"/>
<path d="M327.061 251.115L322.222 270.099L325.704 280.715" stroke="#25282D" stroke-width="3"/>
<path d="M249.911 149.91V252.28C249.911 253.884 249.426 255.423 248.564 256.557C247.701 257.691 246.531 258.329 245.311 258.329H242.244C243.463 258.329 244.634 257.691 245.497 256.557C246.359 255.423 246.844 253.884 246.844 252.28V149.91C246.844 148.305 246.359 146.767 245.497 145.633C244.634 144.498 243.463 143.861 242.244 143.861H245.311C246.531 143.861 247.701 144.498 248.564 145.633C249.426 146.767 249.911 148.305 249.911 149.91Z" fill="#24272D"/>
<path d="M242.244 143.861H102.1C99.5591 143.861 97.4995 146.569 97.4995 149.91V252.28C97.4995 255.62 99.5591 258.329 102.1 258.329H242.244C244.785 258.329 246.844 255.62 246.844 252.28V149.91C246.844 146.569 244.785 143.861 242.244 143.861Z" fill="#72A065"/>
<path d="M175.239 190.197C179.766 190.197 183.436 185.371 183.436 179.419C183.436 173.467 179.766 168.642 175.239 168.642C170.712 168.642 167.042 173.467 167.042 179.419C167.042 185.371 170.712 190.197 175.239 190.197Z" fill="white"/>
<path d="M182.221 158.389C182.221 158.389 182.274 162.351 180.453 164.745C178.632 167.14 175.619 167.069 175.619 167.069C175.619 167.069 175.561 163.107 177.386 160.713C179.211 158.318 182.221 158.389 182.221 158.389Z" fill="white"/>
<path d="M165.378 300.208H135.098L157.638 206.887H187.918L165.378 300.208Z" fill="#72A065"/>
<path d="M145.211 258.329L157.637 206.887H187.917" stroke="white" stroke-width="3"/>
<path d="M175.496 258.329H187.918V206.887L175.496 258.329Z" fill="#24272D"/>
<path d="M186.188 293.277H147.182V299.377H186.188V293.277Z" fill="#72A065"/>
<path d="M80.3353 300.208H472.097" stroke="#475056" stroke-width="5"/>
<path d="M166.686 258.329C166.588 258.768 166.473 259.201 166.341 259.624C164.612 265.129 160.41 268.063 156.952 266.177C154.651 264.922 153.26 261.857 153.095 258.319C153.017 256.435 153.265 254.554 153.819 252.814C155.548 247.309 159.754 244.376 163.212 246.261C166.379 247.995 167.836 253.212 166.686 258.329Z" fill="white"/>
<path d="M166.686 258.329H153.075C152.998 256.445 153.245 254.564 153.8 252.824C155.529 247.319 159.735 244.386 163.193 246.271C166.379 247.995 167.836 253.212 166.686 258.329Z" fill="#24272D"/>
<path d="M207.635 295.167C209.289 295.167 210.63 293.404 210.63 291.23C210.63 289.056 209.289 287.293 207.635 287.293C205.981 287.293 204.641 289.056 204.641 291.23C204.641 293.404 205.981 295.167 207.635 295.167Z" fill="#72A065"/>
<path d="M297.038 382.102H305.208L305.565 372.625" stroke="white" stroke-width="3"/>
<path d="M353.426 380.338L361.949 382.097V371.088" stroke="white" stroke-width="3"/>
</svg>
