<svg width="549" height="577" viewBox="0 0 549 577" fill="none" xmlns="http://www.w3.org/2000/svg">
<g filter="url(#filter0_d)">
<path d="M227.559 63.0526H18.3151C10.4091 63.0526 4 71.3927 4 81.6807V422.645C4 432.933 10.4091 441.273 18.3151 441.273H227.559C235.465 441.273 241.874 432.933 241.874 422.645V81.6807C241.874 71.3927 235.465 63.0526 227.559 63.0526Z" fill="#F2F6F9"/>
<path d="M18.3151 63.0369H227.559C231.356 63.0369 234.997 64.9994 237.682 68.4927C240.366 71.9866 241.874 76.7243 241.874 81.665V96.7126H4.00001V81.6807C3.99842 79.2333 4.36753 76.8088 5.08623 74.5473C5.80492 72.2852 6.85911 70.2298 8.18857 68.4985C9.51801 66.7672 11.0966 65.3934 12.8342 64.4565C14.5718 63.5191 16.4342 63.0369 18.3151 63.0369Z" fill="#DCE2E5"/>
<path d="M20.6936 87.2394C23.9632 87.2394 26.6138 83.7904 26.6138 79.5355C26.6138 75.2807 23.9632 71.8317 20.6936 71.8317C17.424 71.8317 14.7734 75.2807 14.7734 79.5355C14.7734 83.7904 17.424 87.2394 20.6936 87.2394Z" fill="#F2F6F9"/>
<path d="M40.8723 87.2394C44.1421 87.2394 46.7926 83.7904 46.7926 79.5355C46.7926 75.2807 44.1421 71.8317 40.8723 71.8317C37.6027 71.8317 34.9521 75.2807 34.9521 79.5355C34.9521 83.7904 37.6027 87.2394 40.8723 87.2394Z" fill="#F2F6F9"/>
<path d="M61.0525 87.2394C64.3223 87.2394 66.9727 83.7904 66.9727 79.5355C66.9727 75.2807 64.3223 71.8317 61.0525 71.8317C57.7832 71.8317 55.1323 75.2807 55.1323 79.5355C55.1323 83.7904 57.7832 87.2394 61.0525 87.2394Z" fill="#F2F6F9"/>
<path d="M288.614 186.236L266.125 215.502" stroke="#F2F6F9" stroke-width="11"/>
<path d="M450.349 441.268L427.859 470.533" stroke="#F2F6F9" stroke-width="11"/>
<path d="M215.859 4L193.37 33.2653" stroke="#F2F6F9" stroke-width="11"/>
<path d="M403.356 65.2344V106.624" stroke="#F2F6F9" stroke-width="11"/>
<path d="M245.85 492.34L223.36 521.605" stroke="#F2F6F9" stroke-width="11"/>
<path d="M48.6018 492.34L26.1123 521.605" stroke="#F2F6F9" stroke-width="11"/>
<path d="M381.368 37.6758L403.857 66.9411" stroke="#F2F6F9" stroke-width="11"/>
<path d="M303.174 227.522L325.663 256.787" stroke="#F2F6F9" stroke-width="11"/>
<path d="M428.408 469.197V510.587" stroke="#F2F6F9" stroke-width="11"/>
<path d="M29.6262 4L52.1159 33.2653" stroke="#F2F6F9" stroke-width="11"/>
<path d="M172.942 4L195.436 33.2653" stroke="#F2F6F9" stroke-width="11"/>
<path d="M261.075 441.268L283.568 470.533" stroke="#F2F6F9" stroke-width="11"/>
<path d="M282.698 469.197H314.501" stroke="#F2F6F9" stroke-width="11"/>
<path d="M311.781 568.46C440.333 568.46 544.542 566.837 544.542 564.833C544.542 562.828 440.333 561.205 311.781 561.205C183.232 561.205 79.021 562.828 79.021 564.833C79.021 566.837 183.232 568.46 311.781 568.46Z" fill="#E4EFF7"/>
<path d="M134.781 564.833H95.5819L90.6404 564.765L94.4267 545.547L112.155 547.28L134.781 564.833Z" fill="#162C56"/>
<path d="M184.028 564.833H144.833L139.892 564.765L143.674 545.547L161.402 547.28L184.028 564.833Z" fill="#162C56"/>
<path d="M230.848 263.118C230.848 263.118 256.743 270.133 256.743 276.543H228.265L230.848 263.118Z" fill="#3361C2"/>
<path d="M372.885 150.425C375.977 125.636 363.042 102.279 343.992 98.2549C324.943 94.2313 306.993 111.065 303.901 135.854C300.809 160.642 313.745 184 332.794 188.023C351.844 192.048 369.793 175.214 372.885 150.425Z" fill="#3361C2"/>
<path fill-rule="evenodd" clip-rule="evenodd" d="M317.073 101.63C323.381 96.1462 330.796 93.2197 338.382 93.2207C348.549 93.2358 358.297 98.4986 365.486 107.854C372.675 117.209 376.72 129.893 376.731 143.124C376.732 152.995 374.483 162.645 370.269 170.853C366.055 179.061 360.066 185.459 353.057 189.237C346.049 193.015 338.337 194.004 330.897 192.078C323.457 190.153 316.623 185.399 311.259 178.419C305.895 171.439 302.242 162.546 300.762 152.864C299.283 143.183 300.042 133.147 302.946 124.027C305.849 114.908 310.766 107.113 317.073 101.63ZM355.902 109.01C350.716 104.501 344.619 102.094 338.382 102.094C330.019 102.094 321.999 106.417 316.086 114.111C310.172 121.806 306.849 132.241 306.848 143.124C306.847 151.24 308.696 159.174 312.16 165.923C315.625 172.672 320.55 177.932 326.312 181.039C332.074 184.146 338.414 184.959 344.532 183.377C350.649 181.794 356.268 177.886 360.679 172.147C365.089 166.408 368.093 159.097 369.31 151.137C370.527 143.177 369.903 134.925 367.516 127.427C365.13 119.928 361.088 113.519 355.902 109.01Z" fill="#9FBFFF"/>
<path d="M322.274 129.705L338.378 144.695" stroke="white" stroke-width="8"/>
<path d="M351.771 135.002L338.378 144.695" stroke="white" stroke-width="8"/>
<path d="M228.662 276.209H185.099L196.145 248.086L232.601 258.149L228.662 276.209Z" fill="#EA6F57"/>
<path d="M172.766 267.534C179.512 264.642 210.325 234.213 194.87 204.687C180.876 177.953 166.457 191.022 157.167 200.438C147.79 209.969 147.14 221.587 130.47 238.77C117.707 251.933 108.731 262.779 108.731 262.779L155.234 290.385" fill="#EA6F57"/>
<path d="M170.262 324.89L183.47 407.258C184.979 416.702 185.062 426.438 183.715 435.923L167.727 548.141L141.355 547.697L146.345 420.275L131.568 356.677L116.471 547.744L91.4027 547.676V326.206C91.3618 308.052 95.2315 290.246 102.573 274.81L109.508 261.667L154.198 287.697L170.262 324.89Z" fill="#3361C2"/>
<mask id="mask0" mask-type="alpha" maskUnits="userSpaceOnUse" x="91" y="261" width="94" height="288">
<path fill-rule="evenodd" clip-rule="evenodd" d="M170.262 324.89L183.47 407.258C184.979 416.702 185.062 426.438 183.715 435.923L167.727 548.141L141.355 547.697L146.345 420.275L131.568 356.677L116.471 547.744L91.4027 547.676V326.206C91.3618 308.052 95.2315 290.246 102.573 274.81L109.508 261.667L154.198 287.697L170.262 324.89Z" fill="white"/>
</mask>
<g mask="url(#mask0)">
<path d="M77.2439 487.209L99.4606 516.114" stroke="#9FBFFF" stroke-width="40" stroke-linecap="round"/>
<path d="M115.516 475.152L136.321 448.079" stroke="#9FBFFF" stroke-width="40" stroke-linecap="round"/>
<path d="M106.668 427.008L83.1038 396.344" stroke="#9FBFFF" stroke-width="40" stroke-linecap="round"/>
<path d="M182.764 528.124L159.2 497.455" stroke="#9FBFFF" stroke-width="40" stroke-linecap="round"/>
<path d="M125.744 384.955L142.502 363.143" stroke="#9FBFFF" stroke-width="40" stroke-linecap="round"/>
<path d="M111.14 337.673L90.135 310.338" stroke="#9FBFFF" stroke-width="40" stroke-linecap="round"/>
<path d="M186.074 450.814L165.064 423.48" stroke="#9FBFFF" stroke-width="40" stroke-linecap="round"/>
<path d="M133.249 298.49L152.939 272.868" stroke="#9FBFFF" stroke-width="40" stroke-linecap="round"/>
</g>
<path d="M109.669 259.82L157.64 289.863" stroke="white" stroke-width="12"/>
<path d="M196.587 155.478L187.787 195.892" stroke="#3361C2" stroke-width="40" stroke-linecap="round" stroke-linejoin="round"/>
<path d="M194.16 192.828L195.816 193.423C197.742 194.118 199.761 194.251 201.731 193.814C203.7 193.377 205.571 192.381 207.211 190.896C208.851 189.411 210.219 187.474 211.218 185.222C212.217 182.97 212.822 180.46 212.991 177.869L213.793 165.045C214.065 160.908 213.209 156.779 211.375 153.381C209.542 149.983 206.848 147.532 203.766 146.459C202.041 145.864 200.243 145.717 198.474 146.027C196.706 146.337 195.001 147.097 193.458 148.264C191.915 149.431 190.564 150.983 189.483 152.829C188.4 154.676 187.609 156.782 187.153 159.027L184.646 171.256C183.729 175.758 184.215 180.548 185.996 184.587C187.777 188.626 190.711 191.587 194.16 192.828Z" fill="#3361C2"/>
<path d="M208.198 165.249L210.541 176.549L207.115 176.633" stroke="white" stroke-width="3"/>
<path d="M203.485 168.433C204.462 168.433 205.254 167.402 205.254 166.131C205.254 164.86 204.462 163.829 203.485 163.829C202.509 163.829 201.717 164.86 201.717 166.131C201.717 167.402 202.509 168.433 203.485 168.433Z" fill="white"/>
<path d="M212.105 168.767C213.081 168.767 213.874 167.737 213.874 166.465C213.874 165.194 213.081 164.163 212.105 164.163C211.128 164.163 210.336 165.194 210.336 166.465C210.336 167.737 211.128 168.767 212.105 168.767Z" fill="white"/>
<path d="M198.043 178.564C198.043 178.564 201.191 178.564 202.639 182.019L198.043 178.564Z" fill="#3361C2"/>
<path d="M198.043 178.564C198.043 178.564 201.191 178.564 202.639 182.019" stroke="white" stroke-width="3" stroke-linecap="square"/>
<path d="M131.477 365.837L135.219 323.084" stroke="white" stroke-width="2"/>
<path d="M193.971 211.102L201.267 192.698C201.267 192.698 202.547 188.199 205.527 188.736C208.507 189.274 209.394 177.812 213.669 177.922C217.945 178.031 224.01 207.072 209.57 201.174L202.727 218.163L193.971 211.102Z" fill="#3361C2"/>
<path d="M181.626 231.045L194.814 200.438L216.718 216.895L192.379 269.523C191.302 271.846 189.778 273.766 187.958 275.092C186.138 276.419 184.084 277.107 181.999 277.089C179.912 277.071 177.866 276.348 176.06 274.99C174.253 273.633 172.749 271.687 171.695 269.345L152.619 226.817L175.2 213.127L181.626 231.045Z" fill="#EA6F57"/>
<path fill-rule="evenodd" clip-rule="evenodd" d="M181.626 231.045L194.814 200.438L216.718 216.895L192.379 269.523C191.302 271.846 189.778 273.766 187.958 275.092C186.138 276.419 184.084 277.107 181.999 277.089C179.912 277.071 177.866 276.348 176.06 274.99C174.253 273.633 172.749 271.687 171.695 269.345L152.619 226.817L175.2 213.127L181.626 231.045Z" stroke="white" stroke-width="3"/>
<path d="M125.761 180.297C123.948 208.315 142.054 199.196 142.054 199.196C142.054 199.196 130.474 229.933 156.389 227.381C182.304 224.829 189.375 200.762 188.372 186.998C187.971 181.518 185.789 177.269 183.323 173.172C197.525 170.317 197.309 157.587 197.309 157.587C197.309 157.587 220.079 169.148 219.895 146.344C219.71 123.541 201.761 116.218 191.136 116.453C188.899 116.515 186.683 117.018 184.562 117.945C177.743 120.847 172.437 125.581 163.368 125.775C138.315 126.297 135.909 157.206 135.909 157.206C135.909 157.206 126.993 161.34 125.761 180.297Z" fill="#24272D"/>
<path d="M190.913 177.193L190.994 177.148C194.086 175.452 195.536 170.815 194.233 166.79L192.037 160.013C190.733 155.989 187.17 154.102 184.077 155.799L183.996 155.844C180.904 157.541 179.453 162.178 180.757 166.202L182.953 172.979C184.256 177.003 187.82 178.89 190.913 177.193Z" fill="#3361C2"/>
<path d="M185.425 160.849L188.493 170.312" stroke="white" stroke-width="3" stroke-linecap="square"/>
<path d="M200.793 193.888C200.793 193.888 204.949 184.347 206.942 184.493C208.936 184.639 207.271 191.696 207.271 191.696C207.271 191.696 208.851 178.522 213.019 178.016" stroke="white" stroke-width="2"/>
<path d="M517.335 285.849H170.331C162.425 285.849 156.015 294.189 156.015 304.477V403.088C156.015 413.376 162.425 421.716 170.331 421.716H517.335C525.241 421.716 531.651 413.376 531.651 403.088V304.477C531.651 294.189 525.241 285.849 517.335 285.849Z" fill="white"/>
<path d="M529.585 307.682H153.95V294.837C153.962 289.9 155.474 285.17 158.157 281.68C160.84 278.19 164.475 276.222 168.269 276.209H515.27C519.064 276.222 522.698 278.19 525.382 281.68C528.061 285.17 529.573 289.901 529.585 294.837V307.682Z" fill="#9FBFFF"/>
<path d="M228.911 275.405C228.911 275.405 233.444 277.91 237.635 278.839C241.826 279.768 245.46 279.779 245.541 277.425C245.613 275.405 233.363 271.428 233.363 271.428" fill="#3361C2"/>
<path d="M506.041 340.021H177.49V373.316H506.041V340.021Z" fill="#24272D"/>
<path d="M198.203 345.152H181.185V368.186H198.203V345.152Z" fill="#76B79F"/>
<path d="M218.507 345.152H201.488V368.186H218.507V345.152Z" fill="#76B79F"/>
<path d="M238.81 345.152H221.792V368.186H238.81V345.152Z" fill="#76B79F"/>
<path d="M259.109 345.152H242.091V368.186H259.109V345.152Z" fill="#76B79F"/>
<path d="M279.413 345.152H262.394V368.186H279.413V345.152Z" fill="#76B79F"/>
<path d="M299.716 345.152H282.698V368.186H299.716V345.152Z" fill="#76B79F"/>
<path d="M320.02 345.152H303.001V368.186H320.02V345.152Z" fill="#76B79F"/>
<path d="M340.32 345.152H323.301V368.186H340.32V345.152Z" fill="#76B79F"/>
<path d="M360.624 345.152H343.605V368.186H360.624V345.152Z" fill="#76B79F"/>
<path d="M373.747 345.152H363.908V368.186H373.747V345.152Z" fill="#76B79F"/>
<path d="M152.073 413.683L146.345 420.26L152.229 427.014" stroke="white" stroke-width="2"/>
<path d="M170.178 300.578C173.448 300.578 176.098 297.129 176.098 292.874C176.098 288.62 173.448 285.171 170.178 285.171C166.909 285.171 164.258 288.62 164.258 292.874C164.258 297.129 166.909 300.578 170.178 300.578Z" fill="white"/>
<path d="M190.357 300.578C193.627 300.578 196.278 297.129 196.278 292.874C196.278 288.62 193.627 285.171 190.357 285.171C187.088 285.171 184.437 288.62 184.437 292.874C184.437 297.129 187.088 300.578 190.357 300.578Z" fill="white"/>
<path d="M210.536 300.578C213.806 300.578 216.457 297.129 216.457 292.874C216.457 288.62 213.806 285.171 210.536 285.171C207.267 285.171 204.616 288.62 204.616 292.874C204.616 297.129 207.267 300.578 210.536 300.578Z" fill="white"/>
<path d="M338.378 148.886C340.378 148.886 342 146.776 342 144.173C342 141.57 340.378 139.46 338.378 139.46C336.378 139.46 334.756 141.57 334.756 144.173C334.756 146.776 336.378 148.886 338.378 148.886Z" fill="white"/>
<path d="M529.373 308.204V395.066C529.373 397.414 529.016 399.739 528.326 401.908C527.636 404.077 526.625 406.048 525.346 407.708C524.07 409.368 522.558 410.685 520.889 411.583C519.221 412.481 517.436 412.943 515.631 412.942H184.55" stroke="#24272B" stroke-width="3"/>
</g>
<defs>
<filter id="filter0_d" x="0" y="0.648315" width="548.542" height="575.812" filterUnits="userSpaceOnUse" color-interpolation-filters="sRGB">
<feFlood flood-opacity="0" result="BackgroundImageFix"/>
<feColorMatrix in="SourceAlpha" type="matrix" values="0 0 0 0 0 0 0 0 0 0 0 0 0 0 0 0 0 0 127 0"/>
<feOffset dy="4"/>
<feGaussianBlur stdDeviation="2"/>
<feColorMatrix type="matrix" values="0 0 0 0 0 0 0 0 0 0 0 0 0 0 0 0 0 0 0.25 0"/>
<feBlend mode="normal" in2="BackgroundImageFix" result="effect1_dropShadow"/>
<feBlend mode="normal" in="SourceGraphic" in2="effect1_dropShadow" result="shape"/>
</filter>
</defs>
</svg>
