<svg width="330" height="222" viewBox="0 0 330 222" fill="none" xmlns="http://www.w3.org/2000/svg">
<path fill-rule="evenodd" clip-rule="evenodd" d="M0 132.508V138.666L165 221.239L330 138.666V132.508L165 50.0746L0 132.508Z" fill="url(#paint0_linear)"/>
<path fill-rule="evenodd" clip-rule="evenodd" d="M0 132.365L165 214.656L330 132.365L165 50.0746L0 132.365Z" fill="#5C5C5C"/>
<path fill-rule="evenodd" clip-rule="evenodd" d="M228.812 164.237V165.898L209.396 175.716L177.762 159.801V158.14L197.179 148.403L228.812 164.237Z" fill="url(#paint1_linear)"/>
<path fill-rule="evenodd" clip-rule="evenodd" d="M228.812 164.119L209.396 173.765L177.762 158.049L197.179 148.403L228.812 164.119Z" fill="#323232"/>
<path fill-rule="evenodd" clip-rule="evenodd" d="M194.952 159.67L195.591 157.88L200.205 159.67L204.945 163.399L203.767 164.607L198.454 160.836L196.696 160.102L194.952 160.836V159.67Z" fill="black"/>
<path fill-rule="evenodd" clip-rule="evenodd" d="M200.304 155.848L201.844 159.028L206.406 162.073H209.798L210.146 158.961L205.7 156.985V159.974L207.383 160.439V159.028L208.354 159.593V160.842L207.383 161.127L204.794 160.146L202.664 156.985L203.818 155.561L200.304 155.848Z" fill="black"/>
<path fill-rule="evenodd" clip-rule="evenodd" d="M154.411 71.1766L48.6409 123.879L18.232 52.7308L123.945 0L154.411 71.1766Z" fill="#667CA6"/>
<path fill-rule="evenodd" clip-rule="evenodd" d="M149.331 69.1178L51.5467 117.574L24.5451 55.2056L122.361 6.224L149.331 69.1178Z" fill="#D7E6FF"/>
<path fill-rule="evenodd" clip-rule="evenodd" d="M217.873 102.77V109.232L112.103 162.023L48.6409 130.353V123.851L154.411 71.1482L217.873 102.77Z" fill="url(#paint2_linear)"/>
<path fill-rule="evenodd" clip-rule="evenodd" d="M217.873 102.798L112.103 155.5L48.6409 123.879L154.354 71.1482L217.873 102.798Z" fill="#D7E6FF"/>
<path fill-rule="evenodd" clip-rule="evenodd" d="M111.731 151.473L55.2014 124.405L154.045 75.1008L209.94 102.952L111.731 151.473Z" fill="#667CA6"/>
<path fill-rule="evenodd" clip-rule="evenodd" d="M139.597 133.15L120.036 123.784L154.24 106.722L173.582 116.36L139.597 133.15Z" fill="#D7E6FF"/>
<path fill-rule="evenodd" clip-rule="evenodd" d="M252.514 127.463C259.059 127.463 264.365 124.812 264.365 121.542C264.365 118.948 264.365 97.7481 264.365 97.7481H240.663C240.663 97.7481 240.663 118.273 240.663 121.542C240.663 124.812 245.969 127.463 252.514 127.463Z" fill="url(#paint3_linear)"/>
<path fill-rule="evenodd" clip-rule="evenodd" d="M252.514 103.691C259.059 103.691 264.365 101.03 264.365 97.7481C264.365 94.4659 259.059 91.8051 252.514 91.8051C245.969 91.8051 240.663 94.4659 240.663 97.7481C240.663 101.03 245.969 103.691 252.514 103.691Z" fill="#60F0AE"/>
<path fill-rule="evenodd" clip-rule="evenodd" d="M253.831 72.6557L255.147 67.3731L256.464 72.6557V97.0878C256.464 97.0878 256.062 97.3934 255.147 97.3935C254.232 97.3936 253.831 97.0878 253.831 97.0878V72.6557Z" fill="url(#paint4_linear)"/>
<path fill-rule="evenodd" clip-rule="evenodd" d="M257.781 81.9003L259.098 76.6177L260.414 81.9003V99.729C260.414 99.729 260.012 100.035 259.098 100.035C258.183 100.035 257.781 99.729 257.781 99.729V81.9003Z" fill="url(#paint5_linear)"/>
<path fill-rule="evenodd" clip-rule="evenodd" d="M244.613 88.5035L245.93 83.2209L247.247 88.5035V98.4084C247.247 98.4084 246.845 98.7141 245.93 98.7142C245.015 98.7142 244.613 98.4084 244.613 98.4084V88.5035Z" fill="url(#paint6_linear)"/>
<path fill-rule="evenodd" clip-rule="evenodd" d="M248.563 75.297L249.82 70.0144L251.197 75.297V99.729C251.197 99.729 250.822 100.049 249.82 100.056C248.819 100.064 248.563 99.729 248.563 99.729V75.297Z" fill="url(#paint7_linear)"/>
<path fill-rule="evenodd" clip-rule="evenodd" d="M223.956 140.219L207.158 131.73V130.422L210.777 128.556L227.677 137.053V138.357L223.956 140.219Z" fill="#D8D8D8"/>
<path fill-rule="evenodd" clip-rule="evenodd" d="M223.956 138.912L207.158 130.422L210.777 128.558L227.677 137.05L223.956 138.912Z" fill="white"/>
<path fill-rule="evenodd" clip-rule="evenodd" d="M230.635 145.368C226.999 145.368 224.052 143.963 224.052 142.23C224.052 140.856 224.052 139.485 224.052 139.485H237.219C237.219 139.485 237.219 140.497 237.219 142.23C237.219 143.963 234.271 145.368 230.635 145.368Z" fill="url(#paint8_linear)"/>
<path fill-rule="evenodd" clip-rule="evenodd" d="M230.635 142.1C226.999 142.1 224.052 140.783 224.052 139.158C224.052 137.534 226.999 136.217 230.635 136.217C234.271 136.217 237.219 137.534 237.219 139.158C237.219 140.783 234.271 142.1 230.635 142.1Z" fill="#A9F164"/>
<path fill-rule="evenodd" clip-rule="evenodd" d="M250.291 153.292L233.493 144.803V143.495L237.112 141.629L254.012 150.126V151.43L250.291 153.292Z" fill="#D8D8D8"/>
<path fill-rule="evenodd" clip-rule="evenodd" d="M250.291 151.985L233.493 143.495L237.112 141.631L254.012 150.123L250.291 151.985Z" fill="white"/>
<defs>
<linearGradient id="paint0_linear" x1="4.85383" y1="55.1098" x2="4.85383" y2="221.239" gradientUnits="userSpaceOnUse">
<stop stop-color="#5C5C5C"/>
<stop offset="1" stop-color="#1B1B1B"/>
</linearGradient>
<linearGradient id="paint1_linear" x1="179.977" y1="173.779" x2="179.977" y2="148.835" gradientUnits="userSpaceOnUse">
<stop/>
<stop offset="1" stop-color="#393838"/>
</linearGradient>
<linearGradient id="paint2_linear" x1="213.724" y1="73.8638" x2="213.724" y2="160.283" gradientUnits="userSpaceOnUse">
<stop stop-color="#E0E9FF"/>
<stop offset="1" stop-color="#8BA7DE"/>
</linearGradient>
<linearGradient id="paint3_linear" x1="264.016" y1="127.463" x2="264.016" y2="98.6222" gradientUnits="userSpaceOnUse">
<stop stop-color="#69F7AE"/>
<stop offset="1" stop-color="#10AEAF"/>
</linearGradient>
<linearGradient id="paint4_linear" x1="253.869" y1="68.2562" x2="253.869" y2="97.3935" gradientUnits="userSpaceOnUse">
<stop stop-color="#F7A5FF"/>
<stop offset="1" stop-color="#6142FF"/>
</linearGradient>
<linearGradient id="paint5_linear" x1="257.82" y1="77.3065" x2="257.82" y2="100.035" gradientUnits="userSpaceOnUse">
<stop stop-color="#F7BA69"/>
<stop offset="1" stop-color="#FE5903"/>
</linearGradient>
<linearGradient id="paint6_linear" x1="244.675" y1="83.9497" x2="244.675" y2="98.7142" gradientUnits="userSpaceOnUse">
<stop stop-color="#B3FF65"/>
<stop offset="1" stop-color="#64B60D"/>
</linearGradient>
<linearGradient id="paint7_linear" x1="248.602" y1="70.8982" x2="248.602" y2="100.057" gradientUnits="userSpaceOnUse">
<stop offset="0.0110611" stop-color="#FFF0B4"/>
<stop offset="1" stop-color="#C6BA3F"/>
</linearGradient>
<linearGradient id="paint8_linear" x1="224.245" y1="145.368" x2="224.245" y2="139.658" gradientUnits="userSpaceOnUse">
<stop stop-color="#ACF769"/>
<stop offset="1" stop-color="#97CE47"/>
</linearGradient>
</defs>
</svg>
